<?xml version="1.0" encoding="UTF-8"?>
<svg id="Capa_1" data-name="Capa 1" xmlns="http://www.w3.org/2000/svg" xmlns:xlink="http://www.w3.org/1999/xlink" viewBox="0 0 1080 1080">
  <defs>
    <style>
      .cls-1 {
        clip-path: url(#clippath-2);
      }

      .cls-2 {
        clip-path: url(#clippath-1);
      }

      .cls-3 {
        clip-path: url(#clippath);
      }

      .cls-4 {
        fill: none;
      }
    </style>
    <clipPath id="clippath">
      <rect class="cls-4" x="-1100" width="1080" height="1080"/>
    </clipPath>
    <clipPath id="clippath-1">
      <rect class="cls-4" x="1100" width="1080" height="1080"/>
    </clipPath>
    <clipPath id="clippath-2">
      <rect class="cls-4" width="1080" height="540"/>
    </clipPath>
  </defs>
  <g class="cls-3">
    <image width="1920" height="1080" transform="translate(-1520 0)" xlink:href="../../../../Downloads/web-1.png"/>
  </g>
  <g class="cls-2">
    <image width="1920" height="1080" transform="translate(680 0)" xlink:href="../../../../Downloads/web-3,-4-y-8.png"/>
  </g>
  <rect class="cls-4" y="540" width="1080" height="540"/>
  <g class="cls-1">
    <g>
      <path d="m0,23.84c13.69-1.94,27.49-1.3,41.18-.81,16.22.58,32.44.31,48.64.94,12.83.5,25.68,1.23,38.49,2.08,7.45.5,15.06.95,22.45,2.66,1.39.32,2.94-.05,4.41-.11,1.13,1.06,2.44,1.43,3.95.99,11.45,1.96,22.83,4.16,33.93,7.7,3.91,1.25,8.25,1.17,12.15,2.46,5.89,1.95,11.54,5.09,12.94,11.63.9,4.18,2.02,8.54,2.06,12.77.06,6.06,1.07,12,1.32,18.03.28,6.71,1.82,13.37,2.45,20.08.38,4.02.07,8.09.07,11.85,1,.4,1.29.62,1.57.61,17.23-.64,34.4,1.54,51.62,1.05,16.47-.47,32.91.49,49.36.97,1.63.05,3.26,0,5.52,0-.56-5.97.23-11.65-.73-17.56-1.01-6.26-.13-12.8-.34-19.21-.38-11.43,2.54-22.3,6.33-32.82,2.09-5.8,4.79-9.51,12.23-8.55,3.71.48,7.06-1.72,10.71-2.3,8.73-1.4,17.39-2.94,26.24-3.74,11.29-1.02,22.65-1.08,33.91-2.64,5.45-.76,11.02-.47,16.55-.99,18.72-1.76,37.54-1.55,56.31-2.36,31.39-1.36,62.76-.61,94.13-.48,10.42.04,20.99,1.28,31.46,2.46,7.06.79,14.09,2.17,21.25,2.29,3.37.06,6.67,1.45,10.13.75,1.13,1.06,2.44,1.43,3.95.99,1.56.43,2.05-.28,1.98-1.75-.36-8.56.81-17.08.89-25.61.24-24.85.14-49.71.07-74.57-.09-32.74,1.24-65.45,1.27-98.2.01-11.29-.21-22.73.91-33.97,1.22-12.14-.08-24.26.88-36.32,1.81-22.68-.16-45.41,1.04-68.05,1.6-30.11.3-60.2.85-90.3h5.93c-.12,12.26,1.94,24.38,2.26,36.64.12,4.32.48,8.76.7,13.14,2.11,41.58.97,83.19.76,124.78-.09,18.24.07,36.54-.99,54.74-.92,15.81-.23,31.59-.77,47.37-1.49,43.93-.77,87.87-1.04,131.81-.04,7.21-1.48,14.4-.69,22.03,7.84,1.63,16.1,2.32,23.85,5.31,7.43,2.87,9.6,4.93,10.67,13.99.77,6.51,1.89,13.08,2.51,19.57.67,7.08,2.57,14.05,2.27,21.21-.33,7.67,1.86,15.19.86,23.33,8.97,0,17.54-.61,25.98.15,11.94,1.07,23.93,1.14,35.88,2.43,7.8.85,12.46,5.14,17.88,9.27,4.69,3.59,9.15,7.51,12.82,12.05,4.76,5.89,10.36,10.9,15.56,16.33,4.83,5.05,10.32,9.36,15.68,13.84,5.9,4.93,10.72,10.98,15.62,16.87,5.9,7.08,12.35,13.69,19.33,19.55,6.06,5.09,11.26,10.86,16.11,16.88,6.04,7.49,12.23,14.89,17.99,22.61,13.53,18.16,30.24,33.35,45.63,49.79,12.14,12.97,24.53,25.67,37.46,37.8,15.47,14.53,30.27,29.72,45.2,44.78,6.63,6.68,12.06,14.64,19.19,20.77,10.05,8.64,19.55,17.81,28.95,27.12,1.71,1.69,2.64,3.36,2.56,5.94-.23,7.4-.08,14.8-.08,23.2-2.76-2.73-5.08-4.91-7.26-7.2-6.57-6.89-13.61-13.3-20.66-19.69-2.08-1.89-4.48-2.22-7.16-2.21-24.87.04-49.74-.03-74.61.05-2.56,0-5.17-.79-8.06.09,1.79,4.43,5.03,7.7,7.91,10.87,11.2,12.28,20.22,26.17,30.3,39.28,5.88,7.66,12.4,14.83,18.4,22.42,6.09,7.71,11.97,15.61,18.27,23.12,6.73,8.02,13.23,16.21,19.48,24.6,2.21,2.97,4.61,5.82,6.51,8.97,1.34,2.22,2.81,3.24,5.43,3.1,3.6-.19,7.22-.05,10.65-.05,1.45,1.05.4,2.25,1,3.5-2.92.48-5.58-.19-8.1.57-1.01-.03-2.12-.61-3.09.79.7,1.29,1.72,2.35,3.04,3.16.79,3.36,3.81,5.18,5.73,7.69,1.92,2.51,2.45,4.75,2.05,7.9-3.66-2.48-5.71-6.26-8.4-9.34-1.95-2.22-4.22-4.38-5.57-7.16-1.36-2.79-3.58-3.3-6.64-3.28-28.4.17-56.83-.62-85.19.4-17.07.61-34.12.02-51.16.87-1.23-.2-2.46-.35-3.7.11.84,1.6,1.12,3.48,2.6,4.71,4.53,9.09,9.7,17.88,13.29,27.42,1.37,3.65,3.4,5.41,7.82,5.28,13.66-.38,27.34,0,41.01-.17,16.78-.21,33.52,1.14,50.3,1.24,11.85.07,23.72,1.56,35.62,1.93,3.13.1,6.38.78,9.59.85.71,4.6.73,4.36-3.44,3.99-5.01-.45-10.11-.72-15.07-.8-9.33-.16-18.61-1.04-27.91-1.39-24.51-.92-49.03-.64-73.54-.98-6.39-.09-12.77-1.19-19.53-.73,10.11,22,23.38,42.2,34.59,63.48-2.08,1.22-2.73.42-3.6-1.16-3.37-6.12-6.83-12.2-10.51-18.13-8.06-13-15.04-26.58-21.57-40.37-1.56-3.31-3.37-4.12-6.66-4.01-6.25.21-12.52-.07-18.77.1-4.87.13-9.65,1.59-14.68.81-.05,2.04,1.1,3.41,1.83,4.88,3.94,7.95,7.39,16.11,10.91,24.25,3.45,7.95,7.87,15.59,11.89,23.36,1.73,3.35,2.61,7.06,4.72,10.2-1.9,1.3-2.52.02-2.93-.92-6.75-15.47-14.85-30.27-22.35-45.36-2.83-5.69-5.96-11.25-9.11-17.32-8.2.93-16.56-1.18-25.07-.98-10.96.27-21.86-1.94-33.19-.64-1.73,5.65-5.3,9.2-11.99,10.05-4.77.6-9.34,2.16-14.25,1.03-5.38-1.24-9.6-4.36-13.08-8.34-2.72-3.11-5.71-4.04-9.76-4.23-34.23-1.57-68.46-.52-102.69-.67-4.08-.02-8.16.57-12.43.89,4.48,22.53,11.16,44.49,14.85,67.14-5.1-10.54-7.21-21.98-10.19-33.13-3-11.19-5.46-22.53-8.16-33.84h-40.81c4.88,20.6,9.68,40.85,14.48,61.09-.86,1.89.98,3.23.99,4.94q-2.53.63-3.13-1.8c-1.87-7.72-3.76-15.43-5.59-23.15-3.1-13.14-6.17-26.29-9.23-39.43-.11-.46-.1-.95-.17-1.63-5.74-.43-11.49-.47-17.17.18-5.58.64-11.16.75-16.74.57-16.28-.52-32.5,1.1-48.77,1.27-8.33.09-16.75.21-25.07.93-4.15.36-8.36.63-12.47.86,3.35,21.12,7.28,41.84,9.62,62.81-2.99-3.68-2.26-8.46-4.05-12.47.86-1.89-.98-3.23-.99-4.94.47-1.81-1.37-3.15-.99-4.94.44-1.51.07-2.82-.99-3.95.19-4.86-1.31-9.5-2.05-14.22-.9-5.68-2.22-11.3-2.76-17.05-.16-1.7-.78-3.36-1.33-5.63-13.17,1.77-26.44.66-40.15,2.59,2.07,20.28,6,40.41,6.18,60.92-4.56-20.04-6.47-40.48-9.5-61.24-5.05.52-10.24-.98-15.34.97-.58.22-1.31.08-1.96.06-15.26-.46-30.48.93-45.73,1.26-10.78.24-21.67-.28-32.35.92-13.38,1.51-26.87-.7-40.5,2.43-.12,3.75.45,7.88.59,12.02.23,6.69,1.67,13.32,1.2,20-.46,6.57,1.49,12.98,1.03,19.52-.1,1.37.35,2.85-1.08,4.11-2.85-18.56-3.58-37.29-5.2-56.41-12.25.3-24.43,1.82-37.27.91.6,6.19-1.05,12.01.98,17.76.1.3.09.65.07.98-.67,11.64,1.6,23.2,1,34.83-.04.81-.11,1.53-1.61,2.82-1.04-19.07-3.29-37.15-3.44-55.41-36.15.42-72.19.18-108.61-.04,0,10.62,0,20.62,0,30.62,0,7.08-.02,14.16.01,21.24,0,1.81-.02,3.4-3.04,2.29v-54.71c-4.38.58-8.28.96-12.2.45-3.34-.44-4.16,4.18-7.49,3.78-4.43,5.72-10.84,6.92-17.46,7.32-2.13,14.19-1.15,28.36-4.27,42.19v-43.08c-6.58.94-10.68-2.16-13.74-7.23-1.28-2.13-3.24-2.77-5.83-2.7-7.24.21-14.5.36-21.73.01-27.74-1.34-55.5-.83-83.25-.93v-1.98c35.51-2.18,71.02-.34,106.66.19.35-4.95,2.45-8.85,4.34-12.85,2.28-4.82,4.56-9.66,5.37-15.02-.27-1.32-.84-.69-1.38-.21-2.46.07-4.93.2-7.39.2-35.87.01-71.74,0-107.6,0v-1.98c37.14-.04,74.28.3,111.4-.98,1.96-.07,3.92,0,5.78,0,.37-1.19.57-2.13.94-2.99,5-11.59,7.59-23.83,8.23-36.31.67-12.92,0-25.88,1.03-38.83.56-7.03-.67-14.26.34-21.2,1.07-7.38.23-14.6.79-22.14-4.99-.19-9.44.44-13.94.74-8.67.6-17.4.65-26.1.92-18.79.58-37.58.4-56.35,2-6.29.54-12.58,1.64-18.85,1.23-2.1,7.29-2.09,14.57-3.27,21.69-1.51,9.06-1.87,18.31-3.17,27.41-1.8,12.59-3.71,25.15-4.88,37.81-.11,1.14.15,2.77-1.96,1.98v-13.84c1.81-.69.94-2.25.94-3.37-.02-3.89.66-7.79,1.28-11.52,1.51-9.16,2.21-18.43,3.77-27.56,1.1-6.46,1.63-13,2.59-19.48.57-3.86,1.62-7.86,1.18-12.09-3.49-.38-6.53,1.61-9.76.88v-.99c2.05-.2,3.92-1.13,6.09-1.11,1.98.02,4.65-.65,4.67-3.18.05-6.18,1.76-12.12,2.14-18.24.27-4.43,1.01-8.82,1.52-13.05H0v-.99c4.85-.01,9.54-1.7,14.67-.9,3.67-30.81,7.42-61.21,10.32-92H0v-.99c8.51.72,16.86-1.29,25.45-1.03,1.65-15.85,3.27-31.37,4.9-47.08-3.2-1.42-6.37,1.2-9.79.76-3.24-.42-6.58-.03-9.87-.11-3.22-.08-6.53.38-9.62-.78,9.76-2.2,19.76.15,29.59-2.68,0-1.49-.25-3.01.04-4.41,1.81-8.74,1.81-17.68,2.68-26.51.63-6.44,1.14-12.98,1.48-19.48.25-4.83-.06-9.84,1-14.54.75-3.3.6-6.3.48-9.62-10.81-.15-21.29.35-31.71-.99-1.59-.2-3.27.18-4.63-1.02v-.99c12.07,1.39,24.17.9,37.03,1.01.13-9.01,1.72-17.59,1.47-27.06-11.43-1.11-22.87-.72-33.98-3.12,9.86-.22,19.63,1.04,29.45.52.32-.02.66.02.98.08,4.4.83,4.75.78,4.51-3.24-.4-6.74.94-13.36,1.32-20.02.27-4.65-.1-9.5,1.08-14.01,1.29-4.92-.62-10.02,2.05-14.82C28.79,126.51,14.42,128.97,0,128.6v-14.82c2.84.55,5.45-1.05,8.19-.95,14.11.5,28.14-1.43,42.26-1.11,15.46.35,30.94-.11,46.41.14,12.1.19,24.18-.45,36.32.74,13.18,1.29,26.49,1.58,39.78,1.21,7.24-.2,14.48,0,21.73-.06,1.61-.01,3.29.4,5.14-.54-1.98-3.82-1.65-8.18-1.91-12.2-.63-9.86-2.45-19.47-4.13-29.14-.61-3.5-1.57-5.49-5.69-5.69-3.02-.15-6.76-.41-8.3-4.28,3.73-1.63,6.92.71,10.33.57,5.03-.21,6.36.78,7.47,5.71,2.89,12.78,4.57,25.73,5.08,38.85.1,2.58-1.98,4.86-.87,7.37h16.67c-1.53-7.47-1.84-14.81-3.33-21.76-2.57-11.94-.72-23.99-2.52-35.9-.85-5.62-2.07-8.31-7.66-10.17-3.68-1.22-7.69-1.18-11.28-2.18-14.13-3.94-28.62-5.61-43.05-7.55-12.02-1.62-24.17-2.27-36.29-3.06-10.55-.68-21.12-1.57-31.66-1.8-16.59-.35-33.09-2.2-49.68-2.25C21.99,29.69,10.99,29.86,0,30.76v-6.92Zm805.64,582.99c-.84,1.28.79,1.03,1.02,1.64.63.74,1.18,1.48,2.36,1.45,4.24-.11,8.26,1.24,12.78.21,7.59-1.74,9.68-3.43,9.15-11.16-.5-7.38-3.82-14.23-8.07-20.44-.93-.45-.11-3.13-2.42-1.86.87.72.51,2.19,1.73,2.67,1.17,2.92,2.07,5.98,3.56,8.72,2.18,3.99,2.62,8.16,2.49,12.56-.06,1.89-.75,2.82-2.5,3.58-5.84,2.53-11.81,4.11-18.22,3.65-.29-1.16-1.24-.85-2.02-.92-.24-.89-.74-1.19-1.72-.65.48.82.83,1.65,1.86.54Zm-11.23-81.53l.1-.27-.24.18c.16-.77,1-1.69-.4-2.19-.5.98.43,1.52.55,2.29Zm-672,56.86c2.34-.17.69-1.57.79-2.57-.88.82-.6,1.78-.65,2.66-1.71.56-.83,1.62-.61,2.54.39-.84,1.62-1.57.47-2.62Zm666.52-73.33c-.2.98-.67,1.99.29,3.01.65-1.17.78-2.12-.43-2.87-.45-1.26.53-2.92-1.1-3.84-.18-1.27-.07-2.51-.39-3.83-2.52-10.19-6.37-19.96-9.1-30.07-.71-2.62-1.54-4.23-4.5-4.25-1.54,3.87-3.76,3.2-6.2.83-.41-.37-.81-1.31-1.29-.86-.61.58-.32,1.4.63,1.7,3.03,13.28,7.67,26.09,11.69,39.11-1.6-10.84-4.95-21.28-7.38-31.95,2.38,2.55,3.94,5.39,4.7,8.74,1.34,5.88,2.82,11.74,4.38,17.56,4.78,17.84,9.23,35.78,12.19,53.99,1.97,12.16,4.37,24.22,7.34,36.1,3.15,12.57,10.11,14.63,22.35,11.38,3.56-.94,4.02-3.1,3.4-7-.44-2.8-1.81-5.06-2.82-7.55-3.12-7.67-7.09-14.87-11.07-22.13-13.08-23.89-23.06-49.14-31.55-74.98-2.26-6.87-4.38-13.84-5.18-21.31,1.03.58,1.73,1.02,1.88,1.93,1.18,7.57,3.7,14.79,6.15,21.97,1.34,3.91,1.68,8.39,4.73,11.65.43.89-1.07,2.68,1.26,2.67Zm-5.22,21.04c-.15-1.23.43-2.55-.49-3.73-.82,1.2-.52,2.44-.22,3.66.01.05.53-.02.81-.03-.03,2.08-.81,4.26.87,6.09-.08,5.45,2.14,10.36,3.84,15.4-1.35-5.5-1.33-11.28-3.79-16.54-.5-1.58.98-3.59-1.03-4.85Zm11.52,53.8c-1.22-1.13-.04-2.92-1.43-4.45.08,1.97-1.05,3.65.76,5.04.31,6.03.63,12.06,4.48,17.17.52,1.1,1.07,2.17,2.71,2.32-.28-1.55-1.02-2.33-2.1-2.84-1.93-5.63-3.58-11.33-4.42-17.24Zm-659.47-67.26c-.78,5.36-1.59,10.71-2.33,16.07-1.22,8.81-2.3,17.64-4.53,26.29-.74,2.85-2.17,5.73-1.16,8.86-2.33.21-1.01,1.52-.81,2.56.92-.77.38-1.83.66-2.7,5.08-16.44,8.5-33.17,8.85-50.44,1.31-5.03,2.28-10.08,1.32-15.33-.67,4.9-1.33,9.79-2,14.69Zm552.66-224.53c-.41-.38-.82-1.33-1.33-.86-.67.62-.24,1.4.63,1.77,1.19,5.11,5.12,9.25,5.18,14.8.01,1.14,1.23,1.61,2.48,1.94,5.67,1.5,11.22,3.51,16.94,4.76,10.28,2.24,20.71,3.49,31.28,3.1,2.28-.08,4.72-.49,6.4-1.59,5.38-3.53,7.86-9.41,10.93-14.88-3.4.64-6.46,2.19-9.63,2.5-11.51,1.1-23,1.82-34.61.24-10.59-1.45-19.55-6.17-28.27-11.78Zm-252.74-117.82c.05-.82.31-1.68.13-2.45-2.04-8.53-3.34-17.21-5.07-25.8-1.01-5.03-.8-10.46-3.38-14.79-10.13,1.12-19.99.13-30.19.69,2.72,15.25,5.39,30.23,8.05,45.14h27.65c2.54.67,3.47-.26,2.8-2.8Zm262.06-21.85c4.36,4.39,6.82,10.16,10.48,14.66,10.43,1.31,20.47-1.29,30.59-.68,8.3.5,16.43-1.37,25.12-1.04-6.1-9.08-11.9-17.78-17.79-26.43-2.23-3.27-4.48-4.35-8.26-4.27-16.59.37-33.18,2.47-49.77.14-.25-.04-.54.23-.81.36.24.85,1.34,1.62.23,2.59-1.92-2.71-4.62-3.12-7.75-3.08-5.45.08-10.93.51-16.45-.57,5.33,11.42,10.64,22.79,15.99,34.24,8.78-.15,17.41.65,26.01-1.42-1.32-3.33-4.05-5.95-5.68-9.19-.82-1.64-3.18-2.9-1.91-5.32ZM143.38,467.5c-.27,9.89-2.38,19.62-2.89,29.44-.57,11.02-2.15,21.91-3.03,32.88-1.16,14.47-4.98,28.31-8.97,42.13-3.3,11.42-7,22.73-10.46,34.1-.78,2.55-1.36,5.69,1.44,7,3.98,1.85,7.89,4.33,12.7,3.8,5.56-.61,11-4.58,11.9-9.51.57-3.16-.28-6.56-1.02-9.5-2.72-10.76-2.86-21.75-3.59-32.66-1.12-16.73.99-33.46,1.1-50.21.03-4.79.17-9.78.89-14.57,1.67-11.17,3.16-22.33,3.91-33.6.21-3.11.53-6.31,1.72-9.28l-.15-.15c.28,6.31.97,12.58-.49,18.9-.55,2.39-.74,5.22.57,7.78,1.44-.66,1.27-1.56,1.23-2.29-.47-9.01.54-17.97,1.06-26.93.2-3.36.74-6.73,1.49-10.02.98-4.26,7.5-14.68,11.45-18.38,11.49-10.77,16.75-24.13,16.64-39.72-.06-9.81-2.19-19.48-2-29.32.03-1.3.48-2.74-.8-3.93.71,11.31-1.3,22.48-1.14,33.75.02,1.81.2,3.65-.04,5.43-.51,3.8-1.15,7.63-5.26,9.85-1.61-2.22-4.45-3.17-4.63-6.54-.76-14.09,1.22-28.09,1.21-42.16,0-2.21-.09-4.23-.9-7.12-.79,12.1-1.67,23.29-2.16,34.5-.19,4.39-.83,8.76-1.35,13.05-.52,4.24-.95,8.86-3.59,12.73-1.93,2.84-3.54,3.22-5.37.39-1.75-2.71-2.82-5.8-2.6-9.12.5-7.49,1.31-14.96,1.05-22.48,1.72-5.1.54-10.27.1-15.43v15.52c-.45-.02-1.12-.19-1.04.51.41,3.79-1.12,7.34-1.23,11.1-.11,3.62-.89,7.3-1.98,10.77-.76,2.44-2.74,4.7-5.43,4.97-1.99.2-3.12-2.02-4.23-3.6-.24-.35-.04-.98-.18-1.44-2.41-8.07-.2-16.06.46-24.07.4-4.85,1.96-9.63,1.14-14.56-1.05,5.85-2.05,11.68-2.71,17.58-1.2,10.59-2.88,21.1-2.86,31.83,0,4.08.83,7.57,3.18,10.88,3.27,4.62,5.2,10.03,5.62,15.48.6,7.78.1,15.65,1.24,23.43-1.99,5.3-2.32,10.75-1.83,17.07,1.69-3.08-.53-6.16,1.82-8.3Zm688.96,89.85c2.22-.33,4.2,1.49,7.05.94-1.79-6.04-3.92-11.59-6.1-17.16-3.41-8.7-7.34-17.23-9.66-26.33-1.81-7.08-3.32-14.25-5.36-21.26-4.35-14.96-8.62-29.95-14.79-44.31-4.32-10.07-8.72-20.1-12.05-30.57-3.16-9.93-4.97-20.14-7.18-30.29-3.81-17.4-10.87-33.81-15.81-51.27-2.78,8.21-5.91,15.82-9.52,23.23-1.92,3.94-1.41,7.33,1.78,11.01,3.43-6.63,6.6-13.39,9.09-20.83,1.94,1.85.63,3.09.11,4.28-2.43,5.54-4.78,11.11-7.67,16.45-.67,1.23-1.5,2.44-.84,4.44,5.91,17.67,9.99,35.87,14.17,53.98,2.58,11.18,4.55,22.55,6.96,33.81,1,4.67,2.95,9.14,3.22,13.99.31,5.46,1.24,10.83,2.5,16.17,3.3,13.93,10.36,26.32,15.91,39.32,5.34,12.52,13.01,23.71,20.14,35.23,3.08,4.99,6.57,7.56,12.33,8.34,2.73.37,5.59.28,8.34,1.32-1.31-4.92-3.33-9.41-4.34-14.22-.49-2.34-1.14-4.84-4.71-4.37-.38.05-3.34.36-3.43-2.02l-.14.14Zm-104.85-120.3l-.14-.13c-.31,3.62-3.07,6.24-3.2,10.29-.21,6.62-1.58,13.28-3.43,19.76-4.42,15.5-11.41,29.74-20.67,42.55,23.4,21.68,51.61,33.7,81.31,43.21.49-1.76.32-2.9-.08-4.23-.69-2.27-1.42-4.56-1.64-7-.16-1.74-3.39-2.92-1-5.21-2.37-7.14-2.72-14.7-4.67-21.95-3.1-11.52-6.37-22.98-9.14-34.6-3.81-16-10.93-30.8-18.85-45.12-2.45-4.43-5.51-8.49-7.2-13.37-1.35-3.91-3.18-7.65-4.83-11.57-3.18,5.09-6.32,10.05-9.39,15.05-.48.78-1.2,1.98-.92,2.58,1.8,3.94.07,8.23,1.16,12.56.93-1.31,1.12-2.78,2.7-2.82Zm-50.63-215.6c-1.46.73-.71,1.95-.68,3.02.05,11.61-.7,23.2.71,34.81,1.17,9.62,3.21,18.86,7.64,27.48.2.38-.16,1.38,1.5,1.6,4.48.59,8.6,2.76,12.7,4.77,10.52,5.14,21.69,7.57,33.39,7.42,3.24-.04,6.33-1.28,9.66-1.02,4.55.35,9.05-.63,13.28-2.08,3.05-1.05,5.86-.74,8.72-.47,1.85-4.05,3.37-8.27,5.6-12.08,5.98-10.19,10.78-20.82,13.6-32.33,1.55-6.34,4-12.5,3.56-19.21,1.06-1.13,1.43-2.44.99-3.95-.12-6.93,2.59-13.62,2.07-20.54-1.33-.28-2.16-.07-3.12.38-8.54,4.03-17.65,5.1-26.91,4.24-5.24-.49-10.47-1.14-15.72-.86-12.25.67-24.18-1.2-36.06-3.93-3.72-.86-7.49-1.58-11.28-2.2-7.46-1.22-13.14-5.25-16.27-12.62-2.1,9.25-2.88,18.39-3.38,27.56ZM25.58,360.81c-1.5.7-.74,1.94-.71,3.01-.39,2.54-.8,5.17-.97,7.64-.68,10.49-2.23,20.89-3.42,31.31-.47,4.08-.7,8.32-1.37,12.44-.7,4.32-2.01,8.88-1.16,13.43,1.73.77,3.39.43,4.99.38,12.8-.35,25.6-.12,38.42-.71,20.96-.97,42.01.06,62.99-1.23,1.59-.1,3.19-.01,4.61-.01,1.82-31.18,1.54-61.94,1.46-93.01-7.84.69-15.11-.32-22.49.9-7.18,1.18-14.64.69-21.95.93-14.72.49-29.43,1.92-44.19,1.29-4.67-.2-9.42-.51-13.96,1.47-1.06,7.34-2.11,14.71-2.25,22.17ZM694.62,56.45c.16-.81.45-1.65-.66-2.05-.28-4.89-1.72-7.02-6.05-7.77-10.27-1.79-20.54-3.67-30.88-4.92-11.69-1.41-23.42-2.61-35.12-3.86-11.96-1.27-24.07-1.97-36.08-1.98-25.77-.01-51.56-1.14-77.34.68-10.16.72-20.42.15-30.63.12-7.03-.02-14.06.66-21.01,1.27-8.99.79-18.03,1.47-27.02,2.52-9.17,1.07-18.46,1.42-27.69,2-10.08.62-20.16,1.12-30.21,2.11-7.14.71-14.3,1.33-21.49,1.07-3.32-.12-5.19,1.7-6.83,4.55-2.76,4.82-2.93,10.22-3.45,15.33-1.36,13.45-2.2,26.97-2.12,40.52.02,3.49-2.22,6.86-.6,10.41.38.1.68.26.98.25,30.23-.55,60.46.74,90.7-.79,25.91-1.31,51.89-.41,77.84-.87,51.47-.91,102.98-.67,154.46.7.98.03,2.07-.2,2.94.14,4.48,1.74,9.01.4,13.47.9.08-.84.19-1.18.12-1.49-2.57-12.66-4.09-25.46-4.97-38.35-.34-5.05-1.45-5.98-6.58-6.63-.99-.13-1.85-.22-2.74-.82-.65-.43-1.4-.46-1.52-1.52-.16-1.41.83-1.52,1.7-1.89,5-2.15,14.51.73,14.16,8.22-.1,2.12-.11,4.29.23,6.37,1.17,7.18,2.18,14.38,2.65,21.62.3,4.74.37,9.52-1.18,14.62,6.86-.76,12.77.48,18.99.85,0-6.18.45-11.96-.09-17.64-1.36-14.55-2.94-29.09-3.99-43.67Zm-141.05,239.33c-1.26-.75-2.47-1.66-4.07-.99-6.19-2.5-12.72-3.73-19.15-5.4-11.95-3.1-24.14-4.59-36.26-6.6-11.6-1.92-23.37-.88-35.06-1.81-15.57-1.25-31.03.91-46.44,3.62-12.41,2.18-24.7,4.73-36.81,8.11-18.53,5.18-36.35,12.16-52.59,22.68-15.57,10.08-29.43,21.82-36.98,39.41-4.3,10.02-5.05,20.31-1.7,30.79.24,2.15.65,4.24,2.04,6,.05.49-.02,1.03.17,1.46,5.52,12.31,14.22,22.25,24.64,30.4,14.38,11.25,30.57,19.42,47.84,25.53,17.17,6.07,34.7,10.34,52.76,12.8,9.78,1.33,19.59,2.51,29.41,2.71,22.62.46,45.26.67,67.66-3.75,11.39-2.25,22.82-4.1,33.94-7.66,15.6-4.99,30.77-10.87,44.81-19.4,12.94-7.86,24.41-17.41,33.02-30.02,8.17-11.97,13.26-24.95,11.66-39.76-.68-6.33-2.3-12.57-5.65-18.02-5.37-8.73-12.28-16.11-20.34-22.56-15.85-12.7-33.75-21.28-52.91-27.52Zm70.13,28.41c-.29-.94-1.1-1.24-1.67-.64-.48.49.46.87.82,1.27,12.69,14.77,21.13,30.8,18.8,51.38-1.38,12.22-5.76,22.89-12.46,32.69-4.13,6.05-8.53,12.03-12.28,18.25-8.8,14.61-20.18,26.81-32.86,37.87-6.68,5.82-12.97,12.12-20.64,16.83-8.98,5.52-17.76,11.45-27.22,16.04-8.4,4.08-17.31,7.12-26.03,10.52-9.58,3.74-19.5,6.17-29.69,7.61-7.07,1-14.28,1.06-21.28,2.2-9.11,1.48-17.96-.56-26.91-.68-3.08-.04-6.42-.42-9.64-1.12-13.95-3.03-27.11-8.34-40.37-13.35-9.59-3.62-18.92-8.34-26.63-14.89-7.66-6.51-16.01-12.38-22.6-20.14-.85-1-1.71-2.12-2.81-2.76-11.14-6.48-17.55-17.35-25.01-27.16-4.74-6.23-7.98-13.5-13.91-19-2.29-2.12-3.96-5.31-4.75-8.68-.31-1.33-1.19-2.55-1.95-3.78-4.9-7.92-8.65-16.49-9.68-25.71-1.62-14.49,1.76-28.04,9.72-40.42,4.69-7.29,10.55-13.51,16.58-19.63.81-.9,2.94-.33,2.67-2.8-1.28.72-2.44,1.38-3.6,2.04-1.86-.04-3.34.97-4.92,1.76-12.2,6.14-24.04,12.88-35.35,20.55-12.16,8.25-23.67,17.2-33.42,28.37-7.85,8.98-14.7,18.48-20.32,29.05-6.16,11.59-9.79,23.9-11.37,36.68-1.11,8.97-.31,18.13,1.72,27.12,4.76,21.11,15.3,39.05,29.79,54.8,6.17,6.7,13,12.71,20.14,18.44,9.64,7.73,19.92,14.46,30.69,20.32,18.27,9.95,37.39,18.05,57.4,23.92,13.9,4.08,27.93,7.62,42.24,9.99,9.04,1.5,18.1,2.83,27.17,4.15,9.83,1.43,19.73,2.22,29.53,2.49,22.83.62,45.69.8,68.46-2.58,12.05-1.79,24.06-3.55,35.99-6.01,22.82-4.72,45-11.41,66.35-20.78,23.9-10.5,46.05-23.95,65.64-41.2,11.8-10.39,21.84-22.4,29.86-36.2,12.23-21.03,17.48-43.15,13.72-67.34-3.28-21.12-13.3-38.72-27.52-54.24-12.53-13.67-26.83-25.23-42.73-34.7-6.38-3.8-12.54-8.11-19.66-10.56Zm436.7,236.29c-1.14-2.97-2.87-4.87-4.36-6.91-7.06-9.65-14.41-19.07-22.03-28.28-7.51-9.08-14.68-18.44-22.05-27.63-5.86-7.31-12.25-14.26-17.6-21.92-10.57-15.15-22.46-29.22-33.96-43.63-2.32-2.91-4.61-3.86-8.29-4.29-4.99-.58-9.79.12-14.67.18-18.47.24-36.92-.04-55.38,1.77-9.52.93-19.21,1.97-28.89,1.26-1.21-.09-2.44-.01-4.2-.01,4.44,8.11,7.99,15.94,12.07,23.53,7.09,13.18,13.84,26.53,20.95,39.71,6.8,12.61,13.09,25.49,19.62,38.24,5.2,10.15,10.15,20.44,16.29,30.15,16.3-.94,32.34.06,48.43-.87,13.2-.76,26.49-1.48,39.77-1.34,17.94.19,35.89.05,54.29.05Zm-122.81-159.12c-4.85-4.01-8.01-8.16-11.15-12.21-8.72-11.28-16.16-23.48-24.85-34.85-12.15-15.91-23.61-32.35-35.81-48.23-5.35-6.96-5.99-7.06-13.63-6.57-1.54.1-2.65,1.1-4.2,1.09-12.39-.12-24.72,1.43-37.08,1.77-8.27.23-16.44,1.62-25.1,1.2,16.71,33.46,33.21,66.52,49.84,99.82,6.22-.35,12.58-.57,18.9-.74,10.96-.3,21.88-1.49,32.86-1.33,16.29.23,32.59.06,50.21.06Zm-332.47,31.23c-7.6,5.37-14.88,9.4-22.26,13.26-12.68,6.63-26.04,11.63-39.71,15.72-13.61,4.07-27.48,7-41.56,9.17-10.52,1.62-21.09,3.2-31.64,3.56-19.71.66-39.43.51-59.08-2.58-13.47-2.11-26.82-4.6-39.89-8.31-15.74-4.47-30.97-10.3-45.24-18.51-2.54-1.46-4.76-4.03-8.15-3.89,3.41,5.94,7.32,11.33,12.61,15.15,7.77,5.61,13.63,13.15,20.76,19.42,7.12,6.26,14.23,12.26,22.57,16.69,8.88,4.71,18.43,7.84,27.79,11.42,14.39,5.5,29.34,7.95,44.66,8.37,8.13.22,16.16-1.02,24.24-1.82,6.42-.63,12.83-1.16,19.07-2.76,19.01-4.87,37.18-11.88,54.27-21.6,8.58-4.88,17.05-10.08,24.76-16.14,11.77-9.26,22.24-20.07,32.63-30.87,1.4-1.45,3.43-2.93,4.15-6.26Zm-190.06-162.14c0-2.33.35-4.53-.06-6.57-1.87-9.32-2.27-18.83-3.78-28.2-1.36-8.41-2.08-16.93-3.03-25.41-.2-1.8-1.1-2.51-2.87-2.64-2.48-.18-4.81.9-7.16.93-12.71.14-25.38,1-38.04,2.03-6.16.5-12.38.51-18.54.75-9.29.36-18.58,1.53-27.88,1.22-6.69-.23-13.26.73-20.34,1.37,2.53,20.91,4.93,41.68,6.44,62.84,3.75.18,7.36-.44,11.04-.75,7.95-.66,15.95.04,23.95-1.02,6.75-.9,13.65-.45,20.49-.86,13.15-.8,26.34-1.13,39.49-2.14,6.62-.51,13.34.43,20.29-1.52Zm-383.12,16.28c5.57-.08,9.78-.64,13.94-.8,13.2-.49,26.38-1.7,39.55-1.98,14.42-.31,28.82-1.89,43.26-1.2.45.02.91-.15,1.8-.31-.74-22.95,2.13-45.81.64-68.56-31.03-2.22-61.76-2.68-91.83-2.13-2.54,8.48-1.74,16.69-2.47,24.78-.63,6.93-1.22,13.96-1.5,20.97-.18,4.5.17,9.26-.99,13.55-1.38,5.11.61,10.36-2.41,15.69Zm985.82,111.63c-2.4-3.75-5.79-5.32-8.28-7.89-22.85-23.63-47.18-45.8-69.19-70.26-6.78-7.53-13.43-15.17-20.04-22.85-1.74-2.02-3.36-3.26-6.26-2.38-5.15,1.57-10.56,2.58-15.85,2.47-10.99-.22-21.87,1.91-33.28,1.02.84,1.54,1.23,2.81,2.22,3.97,7.91,9.2,14.74,19.25,22.2,28.8,4.31,5.51,8.26,11.36,12.58,16.94,11.55,14.93,21.08,31.35,33.29,45.8,4.08,4.83,8.23,10.21,15.93,6.43.27-.13.65-.03.98-.03,9.32,0,18.63-.65,27.92-.77,12.43-.17,24.8-1.44,37.79-1.24Zm-847.62,62.42c-.73,40.72.95,80.99-1.24,121.07,3.04,1.05,5.21-.67,7.67-.72,10.62-.21,21.26-.23,31.88-.57,16.04-.51,32.1-1.54,48.17-1.28,6.02.1,11.97-.28,18.14-1.48,0-2.31-.2-4.61.05-6.87.26-2.34-.88-3.48-2.7-4.51-21.77-12.4-41.4-27.32-57.03-47.22-10.25-13.04-18.12-27.2-23.45-42.89-1.73-5.1-2.09-10.55-4.17-15.54h-17.32Zm398.84-259.14c6.21,21.67,12.18,42.52,18.15,63.34,2.24,0,3.88-.03,5.51,0,19.53.4,39.02-1.69,58.55-1.02,5.43.19,10.86.07,16.3,0,1.19-.01,2.59.54,3.13-.13-1.27-22.2-1.15-43.65,4.21-65.06-6.97.1-13.51.76-19.96.75-20.08-.06-40.11,1.63-60.19,1.3-8.36-.13-16.69,1.4-25.7.82Zm-309.52,75.87c-.91-21.16-2.22-41.86-3.76-62.58h-86.36v66.07c10.78-.89,21.25-.52,31.71-.85,16.52-.52,33.06-1.77,49.61-1.31,3.09.09,6.1-.1,8.79-1.33Zm266.11-74.57c-4-.76-7.52.7-11.1.66-21.97-.22-43.86,2-65.81,2.11-1.58,0-3.25-.46-4.67.37,3.51,20.89,5.99,41.84,8.69,62.86,2.22,0,3.85.07,5.48-.01,13.01-.63,26.03-1.46,39.03-1.75,14.73-.32,29.42-1.86,44.17-1.24.3.01.61-.18,1.48-.46-5.76-20.88-11.53-41.77-17.26-62.54Zm-130.06-71.16h-114.07c3.29,16.08,5.03,32.12,7.55,48.22,11.79-.28,23.39-.55,34.97-.73,22.47-.34,44.93-1.89,67.42-1.34,3.92.09,7.87-.87,11.63-1.32-2.52-15.09-5-29.89-7.49-44.82Zm-263.06-4.11c-7.53-.23-14.68-.19-21.82-.84-7.34-.67-14.79-.12-22.18-.12-13.16,0-26.31-.02-39.47-.02-2.11,0-4.34-.46-4.55,2.9-.57,9.39-1.98,18.72-1.95,28.16,0,1.29-.38,2.58-.52,3.81-.71,6.37-.48,12.8-1.47,18.79,30.91,3.09,61.32.3,92.73,2.81-3.12-18.85-.55-37.01-.77-55.48Zm776.07,428.68c-3.47-9.73-8.06-18.93-12.67-28.09-8.82-17.54-18.14-34.84-27.18-52.27-6.96-13.42-13.91-26.86-20.65-40.39-1.36-2.73-2.94-3.59-5.94-3.7-10.45-.4-20.76,1.88-31.57.96.89,1.95,1.49,3.41,2.21,4.82,12.29,24.15,24.7,48.23,36.84,72.46,7.92,15.81,15.48,31.8,23.12,47.75,1.57,3.27,3.63,4.78,7.52,4.66,9.7-.31,19.41-.08,29.12-.12,1.56,0,3.2.38,5.08-.53-1.63-2.79-3.16-5.4-4.7-8.05-.86.71-.01,1.82-1.19,2.5ZM130.35,284.85c-5.63-.49-10.68,1.11-15.92.99-15.54-.36-31.05,1.01-46.57,1.65-10.11.41-20.23,1.24-30.36,1.24-1.59,0-3.28-.5-4.82.49-1.58,15.53-3.16,31.04-4.75,46.7,3.17.74,6.12-.53,9.14-.69,9.3-.51,18.6-.16,27.95-.84,11.99-.87,24.03-1.45,36.05-1.99,8.31-.37,16.61-1.33,24.95-1.23,1.4.02,2.94.53,4.33-.56v-45.76Zm430.47-110.81c5.43-.06,10.77-.6,16.09-.77,15.98-.5,31.95-.83,47.9-2.14,6.32-.52,12.7-.51,19.01-.74,9.63-.34,19.23-1.72,28.9-1.31,1.37.06,2.87.44,4.41-.62-4.96-10.88-9.95-21.63-14.73-32.48-.91-2.07-2.14-2.43-4.1-2.49-6.83-.18-13.64.05-20.51-.76-8.72-1.04-17.59.14-26.43-1.04-7.24-.97-14.63-.43-21.97-.88-13.76-.84-27.61-.24-41.56-.24,3.43,14.72,8.22,28.83,12.99,43.47Zm-307.7,7.11c.34-17.09-1.87-33.6-1-50.79-29,1.32-57.43-1.63-86.09-.62,2.59,17.44,1.1,34.87,3.29,52.15,28.3.78,56.27-1.98,83.8-.73Zm501.55,169.34c1.59-3.03,2.74-5.28,3.95-7.5.52-.95.51-1.79.03-2.77-2.71-5.54-5.69-10.94-7.98-16.69-.56-1.41-1.81-2.42-4.33-1.61-3.63,1.17-7.8,1.61-11.59,1.16-7-.84-14.1-1.13-20.99-2.78-7.88-1.89-16.02-3.22-22.72-8.2-3.24-2.41-6.66-2.89-10.47-2.67-12.24.72-24.48,1.43-36.73,1.96-6.24.27-12.54-.41-18.85,1.46,2.04,1.14,3.92,2.32,5.9,3.28,22.22,10.76,42.25,24.53,59.25,42.55,8.76,9.28,16.22,19.45,21.98,30.86,2.47,4.9,4.82,9.85,7.09,15.32,2.42-2.28,3.54-4.8,5.21-6.89,2.54-3.16,2.64-6.43.88-9.9-2.09-4.13-1.76-9.13-4.65-13-.31-.42-.24-1.31-.06-1.89,2.3-7.42,3.28-14.95,1.85-22.67-.38-2.05.41-3.84,1.48-5.48,3.6-5.55,9.37-8.01,15.27-9.8,6.11-1.85,8.03-.54,10.99,4.98,1.66,3.1,2.83,6.39,4.49,10.25Zm-584.74-22.15c7.12-.5,13.59.27,20.13-.94,5.71-1.06,11.71-.68,17.52-.87,14.52-.47,28.97-2.23,43.5-2.19,3.75.01,7.21-.97,10.56-1.45,1.19-7.6-1.27-14.65-.81-21.88.41-6.46-1.61-12.8-.94-18.96-17.56-1.26-34.4,1.02-51.29.69-12.95-.25-25.83,1.68-38.78,1.09-.24-.01-.49.39-.92.75.65,14.29,1.36,28.73,1.03,43.75Zm492.58,239.41c2.89,10.38,4.42,21.08,7.8,31.02h119.46c-1.25-7.38-2.28-14.51-3.76-21.55-.4-1.89.9-4.88-1.82-5.65-6.57-1.85-12.96-5.02-19.82-5.06-33.86-.19-67.72-.56-101.86,1.23Zm-485.92-231.41c.64,1.76.51,3.39.92,4.97,1.11,4.34,2.42,8.88,2.17,13.25-.39,6.65,1.67,12.84,2.37,19.25,1.25,11.39,1.46,22.56-1.79,33.64-1.86,6.36-5.87,11.65-8.92,17.45,6.05.74,11.65-.28,17.19-1.18,1.56-3.06,1.74-6.47,2.77-9.65,5.72-17.72,15.68-32.96,28.05-46.59,9.97-11,21.11-20.81,33.23-29.47,3.49-2.5,7.61-4.19,10.32-7.51-.55-2.81-2.16-3.38-4.57-3.3-6.05.19-12.09.56-18.12.85-11.74.57-23.47,1.57-35.2,1.95-10.15.33-20.27,1.71-30.46,1.24-1.4-.06-2.94-.49-4.26.48v64.55c.89-1.08.71-1.94.68-2.73-.64-17.07,1.65-34.09,1.01-51.17-.05-1.29.33-2.54.59-3.8.5-2.45,1.73-2.8,4.03-2.22ZM17.25,431.04c-1.46,11.86-2.84,23.12-4.24,34.58,4.31-1.84,8.61-1.32,12.67-1.77,12.46-1.36,25.06-1.1,37.58-2.13,9.44-.78,18.94-.23,28.43-.76,10.75-.59,21.56-1.33,32.37-1.32,1.41,0,2.94.52,4.23-.48.56-9.63,1.98-19.18.83-29.55-37.31,1.92-74.56,1.27-111.86,1.42ZM429.32,130.67c2.84,13.65,6.01,27.15,8.28,40.79.69,4.12,2.08,4.56,5.53,4.64,24.48.57,48.93-1.15,73.41-1.08.32,0,.65-.11,1.16-.21-4.68-14.88-7.71-30.18-11.94-44.64-25.77.92-51.1.05-76.44.5Zm255.85,174.53c-1.98-4.04-3.82-7.71-5.59-11.41-3.64-7.64-6.64-15.5-7.49-24-.25-2.48-1.63-2.76-3.66-2.87-6.6-.38-13.05,1.22-19.66,1.12-17.78-.27-35.57-.09-53.36-.09-2.41,0-4.83-.1-7.18.59,2.63,9.75,5.22,19.23,7.71,28.74.81,3.1,2.17,5.1,5.54,6.35,8.71,3.23,17.37,5.75,26.87,4.99,3.4-.27,6.7-1.33,10.12-1.14,11.33.65,22.57-1.16,33.89-1.24,4-.03,8.3-.37,12.82-1.04ZM169.13,612.87c34.84,0,69.2-.04,103.56.06,3.42,0,4.01-1.45,4.11-4.46.26-7.86-1.77-15.58-1.1-23.45.1-1.21.56-2.64-.61-3.7-3.95-.26-7.84.77-11.68.78-28.22.09-56.39,1.9-84.61,2.11-3.22.02-6.44,0-9.66,0v28.66Zm237.99-408.64c-.99-6.59-2.26-12.9-2.77-19.27-.27-3.41-1.58-4.14-4.57-4.02-11.28.45-22.58.48-33.86.69-20.82.38-41.62,1.5-62.45,1.33-4.56-.04-9.13,0-14.16,0,1.24,9.21,2.4,17.89,3.6,26.87,7.91-.85,15.53.37,23.23-1,6.85-1.21,13.96-.45,20.97-.9,13.31-.86,26.66-1.64,39.99-2.07,9.79-.31,19.54-1.68,29.35-1.29.14,0,.29-.14.65-.33Zm425.5,200.1c-16.71-33.6-33.47-66.5-49.18-99.76h-16.05c-1.59,2.78-2.88,5.86-5.55,7.34-3.18,1.77-4.12,5.73-7.69,6.98-1.21.42-1.42,1.83-.85,2.96,2.56,5.1,5.19,10.17,7.87,15.39,1.53-1.69,1.86-3.63,3.2-5.04,4.18-4.42,6.42-4.29,9.03,1.11,2.55,5.28,4.7,10.76,7.2,16.06,7.95,16.87,13.88,34.43,17.82,52.63.62,2.89,1.78,3.29,4.21,3.36,7.85.22,15.59-1.74,23.46-1.05,1.93.17,3.88.03,6.52.03Zm-104.97-54.99c3.56,5.79-2.31,11.83.71,17.52-2.47,3.71-1.33,7.24-.1,11.14,1.66,5.28,2.05,10.98,4.11,16.14,2.02,5.06,3.55,10.31,6.28,15.13,2.15,3.8,3.33,8.14,5.28,12.07,4.99,10.07,10.97,19.64,14.55,30.42,3.03,0,5.83.17,8.6-.04,3.93-.3,8.53-4.42,7.66-6.95-2.29-6.65-2.69-13.69-4.71-20.41-2.1-6.98-3.76-14.14-4.99-21.33-1.53-8.97-3.61-17.77-6.38-26.41-2.32-7.23-5.61-14.09-6.79-21.77-.68-4.4-2.06-9.02-4.68-12.96-1.48-2.22-3.26-4-5.99-2.21-4.65,3.04-9.99,5.17-13.54,9.66Zm68.19-153.3c-.59,8.84-.69,8.91,1.7,12.31,4.8,6.81,9.67,13.56,14.59,20.28,7.18,9.81,14.44,19.57,21.75,29.48,15.19-1.62,30.8-.39,45.61-6.36-7.5-11.14-16.45-20.71-26.36-29.19-8.51-7.28-15.97-15.44-22.52-24.32-2.86-3.87-5.76-4.96-9.75-4.35-8.19,1.23-16.44,1.53-25.01,2.16Zm-233.73-18.78c1.17,5.91,3.43,11.2,4.7,16.73.76,3.3,2.47,3.99,5.47,3.82,9.8-.55,19.62-.38,29.43-.72,16.37-.57,32.76-.99,49.15-1.28,8.32-.15,16.67.45,24.73-1.37,2.12-4.29,3.03-9,5.29-13.23,2.37-4.44-.76-9.83-5.6-8.97-8.42,1.5-16.91.9-25.34,1.53-13.45,1-26.98,1.76-40.47,2.05-15.06.32-30.09,1.9-45.17,1.2-.48-.02-.96.09-2.18.23Zm203.88,29.54c5.86,1.1,12.97-1.23,19.7-5.08,4.29-2.45,5.44-8.89,1.93-11.33-6.09-4.25-12.93-6.89-20.16-8.39-8.17-1.7-16.23-3.75-24.67-4.31-8.08-.54-15.88-3.23-24.24-2.81-8.44.43-16.41,2.59-24.47,4.51-2.76.66-5.08,2.63-7.05,4.86-1.79,2.03-1.77,4.63-.7,6.37,2.61,4.25,6.07,7.71,11.59,8.21,2.68.24,5.31,1.02,7.96,1.56,8.59,1.77,17.13,4.63,25.79,5.03,10.75.5,21.52,1.25,34.34,1.39Zm-181.93,58.18c-1.57-5.69-2.95-10.73-4.37-15.75-4.12-14.67-8.46-29.28-12.23-44.03-.8-3.14-2.06-3.42-4.59-3.5-10.16-.34-20.22,1.74-30.39,1.07-1.2-.08-2.6-.55-3.78.71,1,3.95,1.86,8,3.06,11.94,4.76,15.64,8.63,31.52,13.51,47.13.9,2.89,2.11,3.85,4.69,3.4,7.46-1.29,14.99-.9,22.49-.96,3.77-.03,7.55,0,11.61,0ZM38.41,209.2c16.38,1.92,32.2-1.37,48.07.3,7.81.82,15.77.12,23.67.16,1.45,0,2.87-.05,4.36.32,5.59,1.4,11.23.39,16.94.63.04-8.93-.29-17.2,1.14-25.91-20.16,1.07-39.62-.6-59.1-.75-4.11-.03-8.38.68-12.3-.19-6.86-1.52-13.6-.22-19.97-.86-2.92,9.02-.54,17.87-2.81,26.3Zm130.72,2.42c25.94,0,51.4-.02,76.86.02,3.09,0,6.11-.1,8.77-1.49,1.14-8.82-1.25-17.29-.84-26.2-1.5,0-2.61,0-3.73,0-26.61.04-53.22-.3-79.81,1.03-.44.02-.86.32-1.26.48v26.17Zm687.71,83.32c-8.7-10.78-16.23-22.12-24.34-32.77h-44.51c-1.02,4.18-2.05,8.44-4.4,11.62-6.74,9.13-5.83,17.7.38,26.42.09.12.28.16.58.32,1.35-.55,2.82-.98,4.46-1.01,5.19-.08,10.41-.5,15.57-.69,13.99-.53,27.94-1.71,41.93-2.2,3.38-.12,6.81.4,10.32-1.68Zm-690.17-14.44v-66.17c-11.29,1.31-22.17-1.4-32.93-.6v68.02c10.34,0,20.37.03,30.4-.06.86,0,1.71-.79,2.53-1.2Zm680.54,147.21c6.2,1.45,12.09-1.1,18.13-.66,8.02.58,15.94-1.69,23.97-1,.62.05,1.28-.15,1.89-.33,5.35-1.62,11.05.43,16.35-1.62,2.85,3.36,6.26.97,9.5,1.09,10.98.42,21.88-1.07,32.83-1.12,1.21,0,2.55.42,4.14-.72-4.61-6.09-9.13-12.04-13.64-18.01-1.19-1.58-2.7-1.97-4.68-1.91-8.64.27-17.25-.36-25.94.72-8.91,1.11-18.01.51-27.03.89-10.76.45-21.52,1.84-32.32,1.23-4.23-.24-8.12,1.27-12.51,1.32,3.27,7.07,6.32,13.67,9.3,20.12Zm-550.05-151.01c.84-2.37-.8-3.56-.73-5.32.25-7.15-1.4-14.19-1.74-21.26-.53-11.18-2.83-22.17-3.11-33.35-.05-1.96-.7-3.15-2.82-3.17-10.28-.1-20.55-.11-31.34,1.61,2.92,6.93,1.68,14.2,2.22,21.27.97,12.79,2.3,25.62,2.29,38.49,0,.93-.37,2,.43,2.58,11.81,1.27,23.32-.87,34.8-.85Zm144.59-69.76c-10.81-1.06-21.14.6-31.65,1.03,2.83,21.15,5.62,41.99,8.43,63.05,10.45-.14,20.63-1.8,31.44-.97-2.35-21.57-4.85-42.41-8.22-63.11Zm248.91,314.52c-10.26,11.17-20.82,21.22-32.4,29.45,1.22,4.66,2.25,8.58,3.3,12.56,31.56-.1,62.79.48,94.64-1.57-25.5-7.93-45.98-22.95-65.53-40.44Zm224.52-228.91c-11.28-12.86-21.92-25.73-33.52-37.97-14.37,6.2-29.63,6.87-45.07,6.41.09.57.03.93.19,1.14,7.27,9.94,14.59,19.85,21.82,29.81,2.39,3.29,5.54,4.34,9.37,3.67,9.47-1.64,19.08-1.31,28.62-1.82,6.1-.33,12.14-1.12,18.59-1.24Zm28.51,110.63c4.76,6.81,9.67,12.47,13.53,18.88.87,1.44,2.2,2.11,4.1,2.1,9.86-.05,19.71.22,29.57.56,16.75.57,33.53.3,50.3.37,1.37,0,2.74,0,5.21,0-9.52-7.34-17.28-14.75-24.67-22.56-1.24-1.3-2.6-1.05-4.03-1.18-5.45-.5-10.78,1.14-16.18.96-19.02-.62-37.98,1.88-57.83.86Zm-788.11,57.69c-1.12,2.2-1.54,4.4-1.38,6.73.73,10.67-1.14,21.25-1.12,31.9,0,2.94.74,6.03.02,8.79-2.08,8.04-.66,16.24-1.57,24.37-1.06,9.58-.68,19.38-1.21,29.09-.37,6.69-.07,13.41-.07,20.27h15.46c2.2-40.44,1.05-80.7,1.37-121.15h-11.5Zm362.85-282.19c-25.84.82-51.32-.39-76.75,1.31-.67.04-1.3.07-1.92.79-.05,6.79,3.01,13.29,3.2,20.23.04,1.43,1.7,1.58,3.1,1.78,2.7.38,5.05-1.01,7.65-1.08,7.82-.22,15.67-.5,23.46-.66,14.24-.3,28.44-1.84,42.7-1.31,1.57.06,3.22.44,4.84-.42-2.27-6.79-3.48-13.86-6.29-20.63Zm-384.78,4.43c11.19-2.08,22.31-.54,33.1-1.37,1.33-10.3-1.14-20.03-.64-29.83.38-7.49-1.14-14.8-1.3-22.57-10.64,1.37-20.8-1.55-31.15-.56v54.33Zm412.57-52.43c-12.88-1.53-25.52-.94-38.74-1.13,4.7,15.34,7.87,30.54,12.85,45.35,12.68.96,25.25-1.68,38.24-.76-4.65-14.73-9.22-28.72-12.36-43.46Zm-243.49,179.61c2.15.24,3.63-1.28,5.36-1.93,13.36-5,27.01-9.16,40.03-15.16,10.93-5.05,22.5-8.62,34.27-11.49,11-2.69,22.08-4.78,33.28-6.53-6.1.09-12.15.13-18.26.42-13.98.67-27.96,1.63-41.94,2.05-13.44.4-26.87,1.42-40.35,1.44-4.68,0-9.63.36-14.86.99.84,10.24,1.65,20.21,2.47,30.22Zm-169.13,19.69c11.36,1.2,22.14-1.29,33.1-.79v-45.71c-11.25,1.21-22.18,1.45-33.1,1.28v45.22Zm801.22,272.91c-5.23-11.9-10.8-23.46-17.16-34.66-1.46-2.58-3.04-2.89-5.42-2.8-11.42.41-22.89-.99-34.46,1.23,6.02,12.11,12.02,24.17,18.02,36.24h39.02ZM253.07,131.56c-.75,2.9,1.26,6.06,1,9.49-.93,12.11,1.26,24.17.92,36.29,0,.16,0,.33,0,.49-.11,2.34,1.1,3.06,3.32,3.18,9.47.5,18.82-1.06,28.09-1.26.63-2.84-.46-5.13-.71-7.51-1.26-11.82-2.69-23.61-4.96-35.3-1.04-5.34-.83-5.38-6.06-5.38-7.01,0-14.02,0-21.6,0Zm46.34,180.85c.3-11.28-1.12-21.86-2.21-33.03-11.53,1.95-22.83,1.23-33.96,1.46-1.44,9.16,1.08,17.71.65,26.35-.27,5.35,1.67,10.51.94,15.75,13.73,2.54,22.88-7.5,34.58-10.54Zm326.87,288.06c13.15-1.93,26.55-1.34,40.27-1.46-2.11-10.84-5.01-21.15-7.72-31.72-13.37,1-27.2-2.99-38.92,5.96,2.06,8.81,4.09,17.47,6.36,27.21Zm-309.04,10.18c-.01-7.49.34-14.64-.94-21.76-.26-1.47-.82-2.21-2.24-2.74-4.58-1.72-9.11-3.57-13.61-5.48-1.15-.49-2.52-.78-3.31-.28-2.49,1.58-5.12.68-7.66.81-3.54.18-7.09.04-10.56.04-1.08,10.57,1.54,20.37.74,30.38,12.69,1.01,24.85-.44,37.57-.97Zm300.15-36.47c-14.02,5.93-27.92,11.65-42.32,16.13-14.42,4.48-29,8.22-43.78,11.43,8.58-.16,17.13-.12,25.71-.44,14.39-.54,28.8-1.03,43.22-1.26,7.38-.12,14.75-.02,22.67-.02-1.12-8.99-4.32-17.08-5.49-25.84Zm206.15-108c-.18,1.32-.33,1.68-.24,1.96,4.86,15.77,9.62,31.58,14.67,47.29,4.89,15.22,13.57,29.1,16.1,45.19.21,1.35,1.38,1.97,2.98,1.93,4.73-.12,9.46-.04,14.56-.04-15.87-32.24-30.93-64.44-48.07-96.33Zm-276.23-197.09c1.16,4.58,2.13,8.6,3.23,12.59.46,1.68,1.43,2.6,3.35,3.41,8.63,3.62,17.75,5.93,26.13,10.32,4.15,2.17,8.61,4.48,13.73,4.87-3.26-10.7-5.33-21.61-9.1-31.78-12.48.99-24.65.06-37.34.6Zm198.1-134.22c7.88,9.29,13.94,18.73,20.29,27.95,1.58,2.29,3.26,2.83,5.21,2.24,3.21-.97,6.48-.45,9.63-.97,5.18-.87,10.47-1.69,15.34-4.72-3.55-4.45-6.78-8.68-10.21-12.73-4.2-4.95-7.39-11.58-15.74-10.19-.26.04-.57-.31-.88-.35-7.52-.98-15.02-2.21-23.65-1.24ZM142.17,399.61c1.78-.85,2.96-1.93,3.04-3.41.52-9.04,3.36-17.85,2.95-26.93-.28-6.25.99-12.33,1.17-18.53.11-3.8,1.07-7.61,1.95-11.35.46-1.96,1.14-4.5,3.87-4.12,2.34.33,1.95,2.63,1.98,4.39.01.66-.02,1.32,0,1.97.26,8.35-.57,16.66-.89,24.98-.35,9.1-.52,18.19-2.05,27.2-.69,4.03.06,7.65,2.03,10.18,3.94-8.83,4.21-18.23,4.72-27.43.61-10.93-.48-21.97,1.27-32.84.45-2.75-1.02-7.29,4.33-7.87.74-.08.65-2.25.13-3.47-11.25-1.15-22.17,1.54-33.08.75v38.95c3-12.19,2-24.6,8.73-35.05,1.31,2.53,2.85,4.62,2.97,7.31.44,9.14-1.16,18.13-2.37,27.1-1.04,7.69-1.21,15.47-2.59,23.11-.34,1.88.59,3.38,1.82,5.04Zm115.9-188.98c8.83,0,17.18.05,25.54-.04,2.06-.02,4.38.85,6.14-.71,2.1-1.86.04-3.89-.16-5.85-.05-.49.04-.99-.02-1.48-.76-6.49-1.52-12.98-2.35-20-10.53,1.47-20.87,1.49-31.6,1.41,1.17,9.3.8,18.01,2.45,26.67Zm-125.06-25.59c2.96,8.63-.57,16.97.69,25.61,11.18-.57,22.12,2.17,33.03.62v-26.23h-33.72Zm696.36,72.98c-10.96-15.06-21.55-29.61-32.23-44.28-1.02,2.39-1.66,4.59-1.56,7.01.46,11.88-1.92,23.33-5.54,34.56-.4,1.24-.68,2.43.4,4.05,12.55-1.91,25.31-1.13,38.94-1.34Zm-510.41,330.07c1.88,5.77,1.09,11.14,1.25,16.47.02.49,0,.99,0,1.48.05,4.82.11,4.68,5.06,4.93,2.53.13,4.68-1.08,7.16-1.14,8.31-.19,16.65-.38,24.94-.61,14.07-.38,28.12-1.53,42.21-1.33,3.28.05,6.62.42,10.85-.52-31.65-2.7-61.56-8.97-91.47-19.28Zm208.49-388.15c2.3-1.42,4.23-1.16,6.14-1.17,7.4,0,14.8,0,22.2,0,3.22,0,6.49.32,9.57-1.54-1.65-5.44-3.51-10.87-4.87-16.42-.58-2.33-1.67-2.82-3.71-2.81-11.84.04-23.67.02-35.65.02,2.07,7.16,4.08,14.13,6.33,21.92Zm242.56-31.7c2.2,4.27,4.23,8.05,9.05,9.6,3.15,1.01,6.32,2.44,9.01,4.34,3.39,2.4,8,4.06,7.77,9.38h29.64c-10.24-10.19-20.35-19.05-28.32-29.5-8.58,5.28-17.47,5.97-27.14,6.18Zm85.49,398.18c3.04,7.98,5.72,15.26,8.6,22.45.78,1.95,1.22,3.84-.07,5.48-1.56,1.98-1.74,4.23-2.48,6.85,10.13-1.18,19.73,1.82,29.81.54-5.66-11.23-11.22-22.13-16.61-33.11-.77-1.57-1.58-2.24-3.26-2.22-5.09.05-10.18.02-15.99.02Zm-11.85-138.93c-2.24-6.36-5.74-12.14-8.49-18.26-.89-1.97-2.34-1.83-3.98-1.95-4.59-.32-8.96,1.36-13.59,1.11-5.59-.3-11.29-.7-16.69,1.28,2.2,6.95,4.23,13.98,8.22,20.42,11.36-2.33,23.04.3,34.54-2.6Zm-402.7-225.13c-1.07-6.97-2.06-13.76-3.21-20.53-.25-1.46-1.56-1.9-3.05-1.86-9.43.27-18.93-.75-28.79,1.32,1.2,7.85,2.38,15.54,3.44,22.45,10.57.28,20.74-.4,31.61-1.39Zm-270.76,255.07h17.27c-1.38-9.89-.72-19.53.4-29.23h-17.67v29.23Zm377.72-174.16c-1.31-4.54-2.56-7.99-3.25-11.56-.46-2.41-1.75-2.59-3.73-2.86-2.72-.36-5,1.23-7.66,1.1-16.41-.81-32.77,1.44-49.18.94-2.16-.07-4.13.33-6.04,1.78,23.59.6,46.6,4.12,69.85,10.59Zm-382.17,329.43v-28.86c-5.21,1.54-10.23,1.38-15.03,1.36,1.43,9.33,3.47,18.26,2.1,27.5h12.94Zm-21.23-26.74c1.05-1.19.67-2.5.79-3.68.71-6.99-.59-13.92-.31-20.99.66-16.19.53-32.43,1.3-48.63.26-5.37-.24-10.72.78-16.14.69-3.68.95-7.85-.65-12.31-3.87,11.82-6.23,94.03-1.91,101.75Zm22.13-128.56v-26.28c-.34-.19-.67-.38-1.01-.56-1.92,4.82-6.57,7.06-9.3,11.06-.56.82-1.23,1.79-1.19,3.08.12,4.55.05,9.1.05,13.89,4.11.21,7.79.41,11.46-1.18Zm-33.92-27.23v29.38c2.16.48,3.49-1.38,5.71-.78,1.1-10.27,2.49-20.1-1.65-29.8-1.54.53-2.63,1.32-4.06,1.19Zm-1.5,31.62c1.36,18.65-1.58,36.73-.31,54.87,1.91-18.32,4.31-36.57,6.82-54.87h-6.5Zm644.62-12.37c-5.46,2.96-9.84,6.22-16.37,4.05,2.27,4.56,4.14,8.29,5.7,11.42,4.46.1,7.59-2.85,11.55-2.56.57-4.49-1.56-8.28-.88-12.91Zm-120.9,104.01c-6.02,3.7-11.59,7.13-17.44,10.74,7.24,1.2,13.74-1.44,20.49-.71-1.24-3.34-1.02-6.86-3.05-10.03Zm-510.24,31.6c-.93,5.19.7,9.01,1.09,12.96.56,5.67,1.95,11.45-2.19,16.53,3.59-.28,5.29-1.94,5.65-5.56.51-5.2-.28-10.37-1.37-15.37-.54-2.51-.9-5.44-3.18-8.56ZM770.11,175.21c-1.63-5.28-4.6-6.6-9.08-6.18-4.39.41-8.85.06-13.28.11-1.5.02-3.12-.38-4.51,1.16,9.07.21,17.73,2.41,26.88,4.91Zm-477.06,403.06c0-.25,0-.5,0-.75-4.92-2.44-9.85-4.87-15.04-7.44-.14,1.06-.27,1.68-.29,2.3-.15,5.74-.01,5.89,5.54,5.9,3.26,0,6.53,0,9.79,0Zm482.19-288.34c-1.68,3.35-3.64,6.6-4.37,10.32h10.22c-2.04-3.77-3.51-7.28-5.85-10.32Zm76.1,310c-5.32-2.41-9.97-6.09-16.51-5.61,2.21,1.7.49,4.01,1.84,5.61h14.67Zm-166.58-422.78c4.44-3.35,9.43-4.6,14.5-5.67-5.85-1.17-11.4,1.31-17.77.53,1.09,2.2,1.41,3.92,3.27,5.14ZM115.7,615.32c-.99-3.13-1.09-6.03-1.26-9.27-2.72,4.85-2.5,6.72,1.26,9.27Zm.42.24c1.2,4.14,2.91,4.89,8.95,3.7-3.66-.79-6.49-1.73-8.95-3.7Zm19.85-188.58c-.38-2.48-2.1-3.76-3.47-6.1,0,2.54-.37,4.31.28,6.1h3.19Zm129.18-100.45c-.36,1.09-.75,2.12.99,2.85.65-1.47,2.97-.88,3.32-2.94-1.45-.18-2.87-.39-4.31.09Zm-125.24,156.38c-.75,1.85-.76,3.88-.03,6.59.69-2.57.46-4.47.03-6.59Zm285.47-208.24c-1.82-.55-3.76-1.17-5.66,0h5.66Zm-285.45,83.36c.49-2.2.7-3.9-.18-6.18-.51,2.31-.67,4.01.18,6.18Zm657.6,174.25c0-1.52.11-2.18-.04-2.76-.11-.43-.6-.75-.86-1.16-.23-.36.09-1.27-.86-.9-.62,1.79.66,2.77,1.76,4.82Zm-356.02-258.83c-1.57-.85-2.8-.56-4.13-.12,1.24.66,2.41.71,4.13.12Zm-300.8,203.05c-.42,1.98-.72,3.34.41,5.16.13-1.87.54-3.23-.41-5.16Zm12.06-119.52c.42-2,.75-3.29-.16-4.86-.56,1.65-.58,2.9.16,4.86Zm304.68-84.62c1.11-.23,2.22.97,3.39,0-1.21-.8-2.27.3-3.39,0Zm331.55,280.75c-.05,1.38-.79,2.78.23,4.18.67-1.46.6-2.84-.23-4.18ZM140.73,347.19c-.42,1.39-.94,2.45.73,3.62-.37-1.33.28-2.36-.73-3.62Zm-2.13,147.56c.28,1-1.01,2.18.86,3.26-.35-1.28.3-2.32-.86-3.26Zm651.49,67.48c.91-1.16.7-2.26.14-3.47-.91,1.16-.69,2.26-.14,3.47Zm1.13,5.89c.52-1.41.72-2.45-.27-3.71-.25,1.29-.59,2.3.27,3.71Zm1.84,6.45c-.55,1.22-.77,2.31.15,3.47.54-1.22.76-2.31-.15-3.47Zm-11.8-56.38c-.57.75-.86,1.46.17,2.07.43-.73.57-1.43-.17-2.07Zm10.83,52.32c-.46,1.06-.8,1.85.33,2.66.18-.95.47-1.67-.33-2.66Zm-665.96,3.74c.38-.97.71-1.81-.27-2.82-.26,1-.74,1.85.27,2.82Zm656.15-52.09c-.75.86-.7,1.71-.04,2.59.75-.86.7-1.71.04-2.59Z"/>
      <path d="m1078.67,324.06c-5.58-4.93-10.98-9.98-15.99-15.57-8.36-9.33-18.15-17.24-27.79-25.27-4.84-4.03-9.64-8.16-14.34-12.36-8.26-7.38-17.07-14.19-24.52-22.44-9.64-10.67-18.9-21.76-29.59-31.34-17.42-15.61-34.87-31.18-50.82-48.29-4.77-5.12-10.72-8.74-15.24-14-7.45-8.68-15.69-16.57-24.71-23.55-4.77-3.68-9.26-7.76-13.35-11.97-4.99-5.14-9.82-10.52-15.05-15.43-4.51-4.24-9.41-8.11-13.5-12.77-10.47-11.92-21.27-23.5-32.59-34.64-2.52-2.48-4.44-5.6-7.47-8.07-6.4,4.63-12.85,9.27-19.73,13.47,3.57,4.5,8.71,7.06,13.29,10.18,4.96,3.38,9.66,6.94,13.89,11.2,7.61,7.68,15.73,14.87,23.25,22.59,11.13,11.42,21.26,23.79,32.26,35.39,8.29,8.74,16.35,17.74,24.82,26.34,4.93,5,9.36,10.61,14.52,15.24,16.36,14.67,31.3,30.82,47.54,45.55,27.88,25.29,53.59,52.74,80.63,78.86,10.02,9.68,20.91,18.43,31.35,27.67,6.97,6.17,14.09,12.24,20.38,19.16,1.19,1.31,2.28,2.8,4.15,3.23v13.21c-2.1.6-2.73-1.16-3.64-2.1-7.39-7.63-15.64-14.31-23.53-21.38-10.12-9.06-20.62-17.69-30.74-26.77-16.77-15.06-32.02-31.63-48.13-47.33-9.98-9.73-20.12-19.29-30.21-28.89-5.8-5.52-11.81-10.87-17.22-16.74-4.37-4.74-9.15-9.18-12.84-14.56-2.06-3.01-5.52-4.49-8.05-7.04-14.64-14.75-29.74-29.07-43.93-44.24-9.5-10.15-18.97-20.32-28.5-30.45-6.49-6.9-10.94-15.73-18.3-21.83-7.56-6.26-13.45-13.81-19.47-21.41-4.52-5.71-10.24-10.39-16.22-14.68-2.25-1.61-4.61-3.55-5.89-5.89-1.52-2.79-3.39-4.11-6.54-3.95.36-1.94.26-4.52.54-5.05,2.88-5.47-.38-10.62-.78-15.7-.45-5.71-.43-11.39-.61-17.07-.19-5.75-.04-11.51-.04-17.26,0-19.11-.27-38.22.09-57.31.27-14.29-.84-28.53-1.36-42.78-.33-8.81-.04-17.66-.78-26.44-.89-10.56-1.31-21.15-2.14-31.7-.49-6.22-.38-12.4-.76-18.59-1.26-20.71-.09-41.49-1.15-62.16-2.53-49.33-1.37-98.68-1.93-148.02-.07-5.76.07-11.53.12-17.29h13.84c.62,54.44-1.23,108.88.96,163.31.53,13.26.07,26.52.73,39.81.6,12.08,1.62,24.2,1.27,36.33,0,.33-.05.67.01.99,2.01,10.71,1.45,21.64,2.82,32.43.94,7.41.85,15.04.85,22.47.02,28.9,1.39,57.81-.63,86.71-.64,9.11-.33,18.28-.87,27.43-.38,6.49-.87,13.04-1.5,19.48-.43,4.4-.47,8.95-1.39,13.42-.64,3.13-2.24,6.7-.69,10.74,5.35-3.51,10.35-6.78,15.33-10.05-.72-4.01,1.73-7.53.77-11.33-1.1-4.37-.92-8.83-.86-13.27.29-22.71-.39-45.42.8-68.14,1.21-23.27.39-46.59.9-69.9,1.38-63.47-.63-126.96,1.12-190.45.83-29.97.14-59.97.14-89.96h1.98c.2,9.14.49,18.34,1.23,27.4,1.35,16.59,1.2,33.19.45,49.69-.69,14.93-.19,29.83-.68,44.73-2.27,68.9.22,137.84-1.25,206.73-.72,33.87-.17,67.72-.73,101.58-.03,1.8,0,3.6,0,6.46,3.46-2.36,3.96-5.06,3.96-8.07-.02-10.37-.76-20.82.13-31.11,2.85-32.78,1.12-65.61,1.93-98.41,1.69-68.33.34-136.67,1.08-205,.11-9.79.04-19.69,1.06-29.43.75-7.21.84-14.37.63-21.53-.28-9.87.93-19.65,1.36-29.46.18-4.06.1-8.49,1.82-12.56,1.06,5.39,1.23,10.79.44,16.16-.18,1.26-.56,2.53-.53,3.82.71,33.53-1.19,67.03-1.08,100.56.23,71.14.2,142.29-.19,213.43-.07,12.8-.08,25.67-.86,38.45-.92,15.17-1.76,30.31-1.97,45.51-.06,4.48-1.15,8.98-.67,13.95h27.12c-11.24,1.65-22.81,1.23-33.01,7.35,8.54,9.83,19.21,17.66,28,27.36,7.04,7.78,14.38,15.24,21.78,22.67,4.04,4.06,8.89,7.24,12.64,11.63,3.61,4.23,7.06,8.63,11.3,12.27,12.55,10.77,24.17,22.53,36.15,33.91,5.32,5.06,10.55,10.24,15.93,15.24,9.56,8.87,18.83,18.08,28.72,26.58,13.05,11.22,25.59,22.98,37.19,35.63,9.88,10.78,19.78,21.63,30.76,31.13,18.49,16,35.88,33.06,52.9,50.53,3.64,3.73,7.8,7.28,10.12,12.21-.22.28-.43.56-.65.84ZM800.02,38.33c1.06.04,2.16.81,3.2-.18-1.05-.7-2.12-.65-3.2.18Z"/>
      <path d="m838.09-396.19c-1.21,7.87-1.35,15.82-2.02,23.73-2.57,30.29-2.45,60.66-1.76,90.99.6,26.18,1.41,52.38.57,78.52-.58,17.89.22,35.81-.98,53.63-.74,11-.1,21.96-.81,32.91-.97,14.98-1.44,29.98-2.17,44.97-.31,6.34-.12,12.73-.8,19.03-2.01,18.52-.09,37.09-1.05,55.59-.43,8.33-.89,16.64-.91,24.99,0,2.09.36,3.77,2.09,5.13,7.18,5.65,13.75,12.01,20.27,18.38,10.34,10.11,21.54,19.15,32.93,28.01,8.03,6.24,15.74,12.89,23.5,19.47,12.39,10.51,24.36,21.48,36.47,32.3,7.4,6.61,14.62,13.42,21.85,20.21,14.66,13.76,29.97,26.65,46.22,38.52,7.05,5.15,13.67,10.99,20.27,16.8,16.02,14.1,31.01,29.25,46.14,44.26,1.66,1.64,3.3,3.17,1.49,6.31-1.73-1.67-3.4-3.15-4.93-4.76-12.68-13.37-26.28-25.81-39.7-38.39-9.49-8.9-19.79-17-30.23-24.89-9.14-6.91-17.98-14.27-26.47-22.06-11.57-10.61-22.96-21.38-34.25-32.28-7.37-7.11-15.22-13.73-22.73-20.72-3.2-2.98-6.1-6.61-9.79-8.76-10.75-6.27-18.98-15.65-29.07-22.72-6.76-4.73-12.74-10.58-19.15-15.83-9.93-8.13-18.19-17.99-27.73-26.49-2.54-2.27-4.71-5.32-8.36-6.49-.92-.3-2.16-2.63-1.3-4.24.95-1.78.51-3.54.51-5.27.06-18.94.32-37.89-.05-56.82-.28-14.12.77-28.18,1.33-42.24.28-7.17-.1-14.45.89-21.53,1.19-8.53,0-17.07.95-25.49,1.68-14.76.33-29.53.88-44.27,2.23-59.2.27-118.43,1.05-177.63.17-12.7.76-25.44,2.15-38.05.54-4.9-.3-10.06,1.73-14.79h2.96Z"/>
      <path d="m842.51,83.44c4.64,3.85,8.51,8.24,13.08,11.89,11.16,8.9,21.45,18.83,32.1,28.33,9.24,8.24,19.56,15.48,27.33,25.22,9.42,11.81,22.27,19.67,32.93,29.98,8.35,8.07,17.08,15.81,24.31,25.02,2.6,3.31,5.78,6.12,8.47,9.41,7.68,9.4,16.46,17.8,25.18,26.21,4.78,4.61,10.35,8.35,14.98,13.15.88.92,2.18,1.55,2.3,3.05-.76.58-1.59.57-2.22-.07-8.76-8.77-19.45-15.41-27.69-24.75-8.26-9.37-15.98-19.24-24.58-28.28-8.12-8.52-16.14-17.2-25.35-24.67-13.31-10.81-25.72-22.6-37.94-34.65-11.1-10.94-22.87-21.22-34.85-31.24-4.38-3.66-8.24-7.94-12.61-11.67-5.09-4.33-10.31-8.57-14.76-13.62-.65-.73-1.49-1.35-.67-3.32Z"/>
      <path d="m1024.63,255.68c2.72,1.68,27.43,26.29,28.45,29.25-9.14-9.39-18.79-19.32-28.45-29.25Z"/>
      <path d="m1066.46,299.26c-3.8-1.37-6.11-4.21-7.97-7.49,3.72,1.42,5.75,4.55,7.97,7.49Z"/>
      <path d="m831.59,72.14c2.71,1.99,5.41,3.74,6.15,7.16-2.62-1.97-5.65-3.56-6.15-7.16Z"/>
      <path d="m1073.11,305.96c3.65.41,5.16,3.28,8.13,6.24-4.75-.76-6.1-3.95-8.13-6.24Z"/>
      <path d="m810.76,50.18c1.87.49,2.38,1.76,2.68,3.89-2.09-.95-3.5-1.63-2.68-3.89Z"/>
      <path d="m806.93,45.24c1.63.59,1.7,1.38,1.09,2.56-1.55-.33-1.93-1.12-1.09-2.56Z"/>
      <path d="m1079.32,323.22c.94.3,1.25,1.1.63,1.69-.48.45-.88-.48-1.28-.85.22-.28.43-.56.65-.84Z"/>
      <path d="m402.16,440.83c1.04-4.28,5.19-5.49,8.09-7.74,9.83-7.61,20.98-12.85,33.31-14.56,7.78-1.08,15.61-1.58,23.7-.69,10.09,1.11,19.33,3.86,28.2,8.34,2.43,1.23,5.26,2.27,7.3,5.97-6.28-2.91-12.11-3.81-17.68-5.77-10.14-3.58-20.71-4.33-31.45-4.45-16.24-.17-30.32,5.54-43.36,14.51-2.51,1.72-5.52,2.76-7.48,5.26-.21-.29-.42-.57-.63-.86Z"/>
      <path d="m402.79,441.69c-.4.36-.78,1.29-1.27.82-.6-.58-.3-1.38.64-1.67.21.29.42.57.63.86Z"/>
      <path d="m360.73,115.92c-2.04-1.59-2.88-3.05-2.9-4.59-.13-9.62-1.99-19.21-.94-28.81.63-5.69,3.58-10.78,6.15-15.96,1.71-.4,3.46-.3,5.43-.02-2.63,4.8-5.53,9.31-6.91,14.62-.5,1.91-.82,3.73-.82,5.64-.02,9.51,0,19.02,0,29.12Z"/>
      <path d="m708.65,287.69c3.26.11,6.03,1.88,9.09,2.63,10.38,2.55,20.75,4.53,30.98-.76,1.77-.91,3.21-2.15,4.68-3.38,4.24-3.54,2.99-6.09-.74-9.01-3.05-2.39-6.77-3.92-10.02-6.15,5.31,1.62,11.03,2.38,14.18,8.09,1.56,2.83,1.14,5.01-.92,7.31-4.09,4.59-9.66,5.94-15.28,7.23-11.55,2.65-21.98-1.63-32.5-5.32.18-.21.35-.42.51-.64Z"/>
      <path d="m685.33,268.51c-2.74-1.32-1.77-4.21-2.25-6.24-3.28-13.83-3.62-27.96-3.03-42.09.15-3.53.3-7.22,1.84-10.59.22.22.48.39.76.52-1.3,1.77-.58,3.8-.69,5.72-.43,6.98.14,13.95-.71,20.98-.51,4.26.1,9.06.88,13.44,1.09,6.1,2.06,12.23,3.13,18.33l.07-.07Z"/>
      <path d="m784.89,229.41l-.21,2.85c-1.96,7.03-3.87,14.08-5.89,21.09-1.26,4.36-2.7,8.67-4.07,13-.19.6-.69.48-1.15.32l.14.14c.37-5.78,3.05-10.94,4.6-16.39,3.02-10.57,5.36-21.22,6.54-32.14.02-.22.41-.4.62-.59.81,1.3.56,6.7-.57,11.72Z"/>
      <path d="m717.3,269.96c-3.77.31-7.32,2.65-11.85,1.68,4.22-1.7,7.93-2.55,11.85-1.68Z"/>
      <path d="m730.67,220.36h-7.57l-.02-.49h7.82c-.08.16-.15.33-.23.49Z"/>
      <path d="m699.65,213.67c-1.34-.21-3.02.33-3.57-1.74,1.67-.59,3.24-.69,4.4,1.07-.28.22-.55.44-.83.66Z"/>
      <path d="m704.75,285.67c1.56.17,2.91.74,3.9,2.01-.17.22-.34.43-.51.64-1.11-.9-3.41-.42-3.25-2.79l-.14.14Z"/>
      <path d="m700.49,213.01c.94.8,2.67.48,2.93,2.38-1.53.12-2.72-.59-3.76-1.72.28-.22.55-.44.83-.66Z"/>
      <path d="m686.18,273.58c-2.42-1.33-1.07-3.3-.85-5.07l-.07.07c1.23,1.57.27,3.47.78,5.14l.14-.14Z"/>
      <path d="m686.04,273.72c1.56,1.46.6,3.12.43,4.71-.72-1.58-.74-3.2-.29-4.84l-.14.14Z"/>
      <path d="m697.24,280.6c-.68-1.22-.74-2.35.04-3.56.69,1.22.74,2.35-.04,3.56Z"/>
      <path d="m704.89,285.53c-1.43.49-2.33-.12-3.12-1.62,1.71-.35,2.38.65,2.98,1.76l.14-.14Z"/>
      <path d="m773.56,266.67c.33.92.45,1.85.02,2.96-1.17-1.09-.96-1.97.12-2.83l-.14-.14Z"/>
      <path d="m681.89,209.59c.11-.38.17-.95.73-.65.17.09.03.76.03,1.17-.28-.13-.54-.3-.76-.52Z"/>
      <path d="m719.4,511.15c-2.35-.13-3.82-2.07-5.85-2.85,2.44-.03,4.86,0,5.71,3l.14-.14Z"/>
      <path d="m727.49,437.05c-.26-2.17,1.33-3.43,2.43-4.94,0,2.05-.32,3.94-2.56,4.81l.14.13Z"/>
      <path d="m719.26,511.29c2.17.11,4.32.26,4.96,2.95l.14-.14c-2.02-.37-3.88-1-4.96-2.95l-.14.14Z"/>
      <path d="m710.89,505.42c.92.41,1.84.82,3.44,1.54-2.11.63-3.01.16-3.81-.59.12-.32.25-.64.37-.96Z"/>
      <path d="m772.17,535.44c.74.19,1.48.39,2.3.6q-1.71.5-2.19-.73l-.11.13Z"/>
      <path d="m769.03,534.68c1.04.27,2.26-.19,3.14.77l.11-.13c-1.2.39-2.6,1.62-3.11-.77l-.14.14Z"/>
      <path d="m769.17,534.54c-1.01-.26-2.74,1.58-2.94-1.02l-.14.14c.95.43,2.34-.41,2.93,1.02l.14-.14Z"/>
      <path d="m766.24,533.51c-.92.33-1.85.45-2.96.02,1.09-1.17,1.97-.96,2.83.12l.14-.14Z"/>
      <path d="m758.24,531.32c.87-.67,1.71-.71,2.56.03-.87.67-1.71.71-2.56-.03Z"/>
      <path d="m724.22,514.24c1.07-.19,2.33-.67,2.06,1.34-1.2.18-1.5-.72-1.92-1.49l-.14.14Z"/>
      <path d="m832.47,557.22c-1.24.11-2.48.23-3.71.34,1.2-1.12,2.4-1.56,3.58-.2,0,0,.14-.14.14-.14Z"/>
      <path d="m143.24,467.68c0-3.02.01-6.03.02-9.05,1.61,3.02,1.64,6.04-.02,9.05Z"/>
      <path d="m147.07,457.53c.12-1.09.24-2.17.4-3.59q.58,2.33-.55,3.45s.15.15.15.15Z"/>
      <path d="m694.81,148.45c-2.67-2.06-4.22-4.82-5.05-8.03,3.45,1.57,4.81,4.44,5.05,8.03Z"/>
      <path d="m697.83,152.35c-2-.18-2.27-.53-3.12-4.02,2,.18,2.27.53,3.12,4.02Z"/>
      <path d="m689.87,140.55c-1.64-.36-1.78-1.99-2.58-3.06,2.3-.52,2.93.22,2.58,3.06Z"/>
    </g>
  </g>
  <g>
    <path d="m285.08,774.96l9.6-21h2.19l9.6,21h-2.34l-8.82-19.71h.9l-8.82,19.71h-2.31Zm3.78-5.61l.66-1.8h12.21l.66,1.8h-13.53Z"/>
    <path d="m309.5,774.96v-22.26h2.13v22.26h-2.13Z"/>
    <path d="m325.43,774.96v-22.26h2.13v22.26h-2.13Z"/>
    <path d="m333.5,774.96v-22.26h2.13v22.26h-2.13Z"/>
    <path d="m348.26,775.11c-1.64,0-3.08-.35-4.32-1.04-1.24-.69-2.21-1.64-2.91-2.85-.7-1.21-1.05-2.59-1.05-4.15s.33-2.94,1-4.14,1.59-2.14,2.76-2.83c1.17-.69,2.49-1.04,3.95-1.04s2.79.34,3.95,1.01c1.15.67,2.05,1.61,2.71,2.82.66,1.21.99,2.61.99,4.19,0,.1,0,.21-.02.31,0,.11-.01.23-.01.34h-13.71v-1.59h12.57l-.84.63c0-1.14-.25-2.15-.74-3.04-.49-.89-1.16-1.58-2-2.08-.84-.5-1.81-.75-2.91-.75s-2.05.25-2.91.75c-.86.5-1.53,1.2-2.01,2.1-.48.9-.72,1.93-.72,3.09v.33c0,1.2.26,2.25.79,3.17.53.91,1.27,1.62,2.22,2.13s2.04.76,3.25.76c.96,0,1.86-.17,2.69-.51.83-.34,1.54-.86,2.14-1.56l1.2,1.38c-.7.84-1.58,1.48-2.62,1.92s-2.21.66-3.46.66Z"/>
    <path d="m366.02,774.36c-1.5,0-2.85-.33-4.05-.98-1.2-.65-2.14-1.55-2.83-2.71-.69-1.16-1.04-2.49-1.04-3.99s.34-2.82,1.04-3.97,1.63-2.04,2.83-2.69c1.2-.64,2.55-.96,4.05-.96,1.4,0,2.66.29,3.78.87,1.12.58,2.01,1.44,2.67,2.58.66,1.14.99,2.53.99,4.17s-.33,3.03-.99,4.17c-.66,1.14-1.55,2.01-2.67,2.61s-2.38.9-3.78.9Zm.39,6.57c-1.44,0-2.82-.21-4.14-.63-1.32-.42-2.39-1.02-3.21-1.8l1.08-1.62c.74.66,1.65,1.19,2.75,1.58,1.09.39,2.25.58,3.46.58,2,0,3.47-.46,4.41-1.4.94-.93,1.41-2.38,1.41-4.33v-3.93l.3-2.7-.21-2.7v-4.77h2.04v13.83c0,2.72-.67,4.71-2,5.99-1.33,1.27-3.29,1.9-5.89,1.9Zm-.18-8.46c1.16,0,2.19-.24,3.09-.73.9-.49,1.61-1.17,2.13-2.04.52-.87.78-1.88.78-3.02s-.26-2.14-.78-3c-.52-.86-1.23-1.53-2.13-2.02-.9-.49-1.93-.74-3.09-.74s-2.17.25-3.08.74-1.62,1.17-2.13,2.02c-.51.86-.76,1.86-.76,3s.25,2.15.76,3.02c.51.87,1.22,1.55,2.13,2.04s1.94.73,3.08.73Z"/>
    <path d="m384.68,775.11c-1.18,0-2.21-.2-3.08-.58-.87-.39-1.54-.93-2-1.62-.46-.69-.69-1.49-.69-2.39,0-.82.19-1.56.58-2.23.39-.67,1.03-1.21,1.92-1.62.89-.41,2.08-.62,3.58-.62h5.43v1.59h-5.37c-1.52,0-2.58.27-3.17.81s-.88,1.21-.88,2.01c0,.9.35,1.62,1.05,2.16s1.68.81,2.94.81,2.23-.27,3.1-.83c.87-.55,1.5-1.34,1.91-2.38l.48,1.47c-.4,1.04-1.1,1.87-2.09,2.49-.99.62-2.23.93-3.73.93Zm5.43-.15v-3.48l-.09-.57v-5.82c0-1.34-.38-2.37-1.12-3.09s-1.87-1.08-3.34-1.08c-1.02,0-1.99.17-2.91.51-.92.34-1.7.79-2.34,1.35l-.96-1.59c.8-.68,1.76-1.21,2.88-1.58s2.3-.56,3.54-.56c2.04,0,3.62.51,4.72,1.52,1.11,1.01,1.67,2.54,1.67,4.6v9.78h-2.04Z"/>
    <path d="m397.94,774.96v-15.75h2.04v4.29l-.21-.75c.44-1.2,1.18-2.12,2.22-2.75s2.33-.95,3.87-.95v2.07c-.08,0-.16,0-.24-.01-.08,0-.16-.02-.24-.02-1.66,0-2.96.51-3.9,1.52s-1.41,2.44-1.41,4.3v8.04h-2.13Z"/>
    <path d="m422.27,775.11c-1.18,0-2.21-.2-3.08-.58-.87-.39-1.54-.93-2-1.62-.46-.69-.69-1.49-.69-2.39,0-.82.19-1.56.58-2.23.39-.67,1.03-1.21,1.92-1.62.89-.41,2.08-.62,3.58-.62h5.43v1.59h-5.37c-1.52,0-2.58.27-3.17.81s-.88,1.21-.88,2.01c0,.9.35,1.62,1.05,2.16s1.68.81,2.94.81,2.23-.27,3.1-.83c.87-.55,1.5-1.34,1.91-2.38l.48,1.47c-.4,1.04-1.1,1.87-2.09,2.49-.99.62-2.23.93-3.73.93Zm5.43-.15v-3.48l-.09-.57v-5.82c0-1.34-.38-2.37-1.12-3.09s-1.87-1.08-3.34-1.08c-1.02,0-1.99.17-2.91.51-.92.34-1.7.79-2.34,1.35l-.96-1.59c.8-.68,1.76-1.21,2.88-1.58s2.3-.56,3.54-.56c2.04,0,3.62.51,4.72,1.52,1.11,1.01,1.67,2.54,1.67,4.6v9.78h-2.04Z"/>
    <path d="m435.53,774.96v-22.26h2.13v22.26h-2.13Z"/>
    <path d="m451.46,774.96v-15.75h2.04v4.29l-.21-.75c.44-1.2,1.18-2.12,2.22-2.75s2.33-.95,3.87-.95v2.07c-.08,0-.16,0-.24-.01-.08,0-.16-.02-.24-.02-1.66,0-2.96.51-3.9,1.52s-1.41,2.44-1.41,4.3v8.04h-2.13Z"/>
    <path d="m469.79,775.11c-1.64,0-3.08-.35-4.32-1.04-1.24-.69-2.21-1.64-2.91-2.85-.7-1.21-1.05-2.59-1.05-4.15s.33-2.94,1-4.14,1.59-2.14,2.76-2.83c1.17-.69,2.49-1.04,3.95-1.04s2.79.34,3.95,1.01c1.15.67,2.05,1.61,2.71,2.82.66,1.21.99,2.61.99,4.19,0,.1,0,.21-.02.31,0,.11-.01.23-.01.34h-13.71v-1.59h12.57l-.84.63c0-1.14-.25-2.15-.74-3.04-.49-.89-1.16-1.58-2-2.08-.84-.5-1.81-.75-2.91-.75s-2.05.25-2.91.75c-.86.5-1.53,1.2-2.01,2.1-.48.9-.72,1.93-.72,3.09v.33c0,1.2.26,2.25.79,3.17.53.91,1.27,1.62,2.22,2.13s2.04.76,3.25.76c.96,0,1.86-.17,2.69-.51.83-.34,1.54-.86,2.14-1.56l1.2,1.38c-.7.84-1.58,1.48-2.62,1.92s-2.21.66-3.46.66Z"/>
    <path d="m485.45,775.11c-1.3,0-2.53-.19-3.69-.56-1.16-.37-2.07-.83-2.73-1.39l.96-1.68c.64.48,1.46.9,2.46,1.25,1,.35,2.05.53,3.15.53,1.5,0,2.58-.24,3.24-.71s.99-1.09.99-1.88c0-.58-.19-1.04-.55-1.37-.37-.33-.86-.58-1.46-.75-.6-.17-1.27-.31-2.01-.43-.74-.12-1.47-.26-2.2-.42-.73-.16-1.4-.39-2-.71-.6-.31-1.09-.74-1.46-1.28-.37-.54-.56-1.26-.56-2.16s.24-1.63.72-2.31c.48-.68,1.18-1.21,2.11-1.61.93-.39,2.07-.58,3.41-.58,1.02,0,2.04.14,3.06.41,1.02.27,1.86.62,2.52,1.07l-.93,1.71c-.7-.48-1.45-.83-2.25-1.04-.8-.21-1.6-.32-2.4-.32-1.42,0-2.46.25-3.13.74s-1,1.12-1,1.88c0,.6.18,1.07.55,1.41s.86.6,1.47.79,1.28.34,2.01.46c.73.12,1.46.27,2.19.43.73.17,1.4.4,2.01.69s1.1.7,1.47,1.23c.37.53.55,1.22.55,2.08,0,.92-.25,1.71-.76,2.38-.51.67-1.25,1.19-2.22,1.56-.97.37-2.14.56-3.52.56Z"/>
    <path d="m493.4,760.98v-1.77h9.75v1.77h-9.75Zm7.44,14.13c-1.48,0-2.62-.4-3.42-1.2-.8-.8-1.2-1.93-1.2-3.39v-14.79h2.13v14.67c0,.92.24,1.63.71,2.13s1.14.75,2.03.75c.94,0,1.72-.27,2.34-.81l.75,1.53c-.42.38-.93.66-1.52.84s-1.2.27-1.81.27Z"/>
    <path d="m512.48,775.11c-1.18,0-2.21-.2-3.08-.58-.87-.39-1.54-.93-2-1.62-.46-.69-.69-1.49-.69-2.39,0-.82.19-1.56.58-2.23.39-.67,1.03-1.21,1.92-1.62.89-.41,2.08-.62,3.58-.62h5.43v1.59h-5.37c-1.52,0-2.58.27-3.17.81s-.88,1.21-.88,2.01c0,.9.35,1.62,1.05,2.16s1.68.81,2.94.81,2.23-.27,3.1-.83c.87-.55,1.5-1.34,1.91-2.38l.48,1.47c-.4,1.04-1.1,1.87-2.09,2.49-.99.62-2.23.93-3.73.93Zm5.43-.15v-3.48l-.09-.57v-5.82c0-1.34-.38-2.37-1.12-3.09s-1.87-1.08-3.34-1.08c-1.02,0-1.99.17-2.91.51-.92.34-1.7.79-2.34,1.35l-.96-1.59c.8-.68,1.76-1.21,2.88-1.58s2.3-.56,3.54-.56c2.04,0,3.62.51,4.72,1.52,1.11,1.01,1.67,2.54,1.67,4.6v9.78h-2.04Z"/>
    <path d="m532.25,775.11c-1.34,0-2.51-.25-3.51-.75s-1.77-1.25-2.33-2.25c-.55-1-.82-2.25-.82-3.75v-9.15h2.13v8.91c0,1.68.42,2.95,1.25,3.79.83.85,2,1.28,3.5,1.28,1.1,0,2.05-.23,2.86-.68.81-.45,1.43-1.1,1.86-1.96.43-.86.64-1.89.64-3.09v-8.25h2.13v15.75h-2.04v-4.32l.33.78c-.5,1.16-1.28,2.07-2.33,2.71-1.05.65-2.28.98-3.67.98Z"/>
    <path d="m545.9,774.96v-15.75h2.04v4.29l-.21-.75c.44-1.2,1.18-2.12,2.22-2.75s2.33-.95,3.87-.95v2.07c-.08,0-.16,0-.24-.01-.08,0-.16-.02-.24-.02-1.66,0-2.96.51-3.9,1.52s-1.41,2.44-1.41,4.3v8.04h-2.13Z"/>
    <path d="m560.96,775.11c-1.18,0-2.21-.2-3.08-.58-.87-.39-1.54-.93-2-1.62-.46-.69-.69-1.49-.69-2.39,0-.82.19-1.56.58-2.23.39-.67,1.03-1.21,1.92-1.62.89-.41,2.08-.62,3.58-.62h5.43v1.59h-5.37c-1.52,0-2.58.27-3.17.81s-.88,1.21-.88,2.01c0,.9.35,1.62,1.05,2.16s1.68.81,2.94.81,2.23-.27,3.1-.83c.87-.55,1.5-1.34,1.91-2.38l.48,1.47c-.4,1.04-1.1,1.87-2.09,2.49-.99.62-2.23.93-3.73.93Zm5.43-.15v-3.48l-.09-.57v-5.82c0-1.34-.38-2.37-1.12-3.09s-1.87-1.08-3.34-1.08c-1.02,0-1.99.17-2.91.51-.92.34-1.7.79-2.34,1.35l-.96-1.59c.8-.68,1.76-1.21,2.88-1.58s2.3-.56,3.54-.56c2.04,0,3.62.51,4.72,1.52,1.11,1.01,1.67,2.54,1.67,4.6v9.78h-2.04Z"/>
    <path d="m582.26,759.06c1.28,0,2.41.25,3.38.74s1.73,1.24,2.28,2.24c.55,1,.83,2.26.83,3.78v9.15h-2.13v-8.94c0-1.66-.42-2.91-1.25-3.76-.83-.85-2-1.28-3.5-1.28-1.12,0-2.1.23-2.92.68-.83.45-1.47,1.1-1.92,1.95-.45.85-.68,1.88-.68,3.08v8.28h-2.13v-15.75h2.04v4.32l-.33-.81c.5-1.14,1.3-2.03,2.4-2.68,1.1-.65,2.41-.98,3.93-.98Z"/>
    <path d="m592.04,760.98v-1.77h9.75v1.77h-9.75Zm7.44,14.13c-1.48,0-2.62-.4-3.42-1.2-.8-.8-1.2-1.93-1.2-3.39v-14.79h2.13v14.67c0,.92.24,1.63.71,2.13s1.14.75,2.03.75c.94,0,1.72-.27,2.34-.81l.75,1.53c-.42.38-.93.66-1.52.84s-1.2.27-1.81.27Z"/>
    <path d="m612.8,775.11c-1.64,0-3.08-.35-4.32-1.04-1.24-.69-2.21-1.64-2.91-2.85-.7-1.21-1.05-2.59-1.05-4.15s.33-2.94,1-4.14,1.59-2.14,2.76-2.83c1.17-.69,2.49-1.04,3.95-1.04s2.79.34,3.95,1.01c1.15.67,2.05,1.61,2.71,2.82.66,1.21.99,2.61.99,4.19,0,.1,0,.21-.02.31,0,.11-.01.23-.01.34h-13.71v-1.59h12.57l-.84.63c0-1.14-.25-2.15-.74-3.04-.49-.89-1.16-1.58-2-2.08-.84-.5-1.81-.75-2.91-.75s-2.05.25-2.91.75c-.86.5-1.53,1.2-2.01,2.1-.48.9-.72,1.93-.72,3.09v.33c0,1.2.26,2.25.79,3.17.53.91,1.27,1.62,2.22,2.13s2.04.76,3.25.76c.96,0,1.86-.17,2.69-.51.83-.34,1.54-.86,2.14-1.56l1.2,1.38c-.7.84-1.58,1.48-2.62,1.92s-2.21.66-3.46.66Z"/>
    <path d="m632.54,774.96v-21h2.22v19.08h11.76v1.92h-13.98Z"/>
    <path d="m656.03,775.11c-1.34,0-2.51-.25-3.51-.75s-1.77-1.25-2.33-2.25c-.55-1-.82-2.25-.82-3.75v-9.15h2.13v8.91c0,1.68.42,2.95,1.25,3.79.83.85,2,1.28,3.5,1.28,1.1,0,2.05-.23,2.86-.68.81-.45,1.43-1.1,1.86-1.96.43-.86.64-1.89.64-3.09v-8.25h2.13v15.75h-2.04v-4.32l.33.78c-.5,1.16-1.28,2.07-2.33,2.71-1.05.65-2.28.98-3.67.98Z"/>
    <path d="m677.72,759.06c1.28,0,2.41.25,3.38.74s1.73,1.24,2.28,2.24c.55,1,.83,2.26.83,3.78v9.15h-2.13v-8.94c0-1.66-.42-2.91-1.25-3.76-.83-.85-2-1.28-3.5-1.28-1.12,0-2.1.23-2.92.68-.83.45-1.47,1.1-1.92,1.95-.45.85-.68,1.88-.68,3.08v8.28h-2.13v-15.75h2.04v4.32l-.33-.81c.5-1.14,1.3-2.03,2.4-2.68,1.1-.65,2.41-.98,3.93-.98Z"/>
    <path d="m696.5,775.11c-1.56,0-2.96-.35-4.18-1.04-1.23-.69-2.2-1.64-2.9-2.85-.7-1.21-1.05-2.59-1.05-4.15s.35-2.97,1.05-4.17c.7-1.2,1.67-2.14,2.9-2.82,1.23-.68,2.62-1.02,4.18-1.02,1.34,0,2.55.26,3.63.78,1.08.52,1.93,1.3,2.55,2.34l-1.59,1.08c-.54-.8-1.21-1.39-2.01-1.77s-1.67-.57-2.61-.57c-1.12,0-2.13.25-3.03.76-.9.51-1.61,1.23-2.13,2.15-.52.92-.78,2-.78,3.24s.26,2.32.78,3.24c.52.92,1.23,1.64,2.13,2.15.9.51,1.91.76,3.03.76.94,0,1.81-.19,2.61-.57s1.47-.96,2.01-1.74l1.59,1.08c-.62,1.02-1.47,1.79-2.55,2.33-1.08.53-2.29.79-3.63.79Z"/>
    <path d="m714.65,759.06c1.28,0,2.41.25,3.38.74s1.73,1.24,2.28,2.24c.55,1,.83,2.26.83,3.78v9.15h-2.13v-8.94c0-1.66-.42-2.91-1.25-3.76-.83-.85-2-1.28-3.5-1.28-1.12,0-2.1.23-2.92.68-.83.45-1.47,1.1-1.92,1.95-.45.85-.68,1.88-.68,3.08v8.28h-2.13v-22.26h2.13v10.83l-.42-.81c.5-1.14,1.3-2.03,2.4-2.68,1.1-.65,2.41-.98,3.93-.98Z"/>
    <path d="m726.89,774.96v-22.26h2.13v11.16l-.3,3.18.21,3.18v4.74h-2.04Zm8.13.15c-1.38,0-2.62-.32-3.72-.95s-1.97-1.54-2.61-2.75c-.64-1.2-.96-2.65-.96-4.35s.33-3.17.98-4.37c.65-1.19,1.52-2.09,2.62-2.71,1.1-.62,2.33-.93,3.69-.93,1.5,0,2.85.34,4.04,1.01s2.12,1.6,2.81,2.8c.68,1.2,1.02,2.6,1.02,4.2s-.34,2.97-1.02,4.18c-.68,1.21-1.62,2.16-2.81,2.83-1.19.68-2.54,1.02-4.04,1.02Zm-.15-1.89c1.12,0,2.12-.25,3-.76.88-.51,1.58-1.23,2.1-2.16s.78-2,.78-3.22-.26-2.32-.78-3.24-1.22-1.63-2.1-2.15c-.88-.51-1.88-.76-3-.76s-2.13.25-3.02.76c-.89.51-1.59,1.23-2.1,2.15s-.76,2-.76,3.24.25,2.29.76,3.22,1.21,1.65,2.1,2.16,1.9.76,3.02.76Z"/>
    <path d="m753.65,775.11c-1.54,0-2.91-.35-4.11-1.04-1.2-.69-2.15-1.65-2.85-2.87s-1.05-2.6-1.05-4.14.35-2.97,1.05-4.17c.7-1.2,1.65-2.14,2.85-2.82s2.57-1.02,4.11-1.02,2.95.35,4.16,1.04c1.21.69,2.16,1.63,2.85,2.82.69,1.19,1.04,2.58,1.04,4.16s-.34,2.94-1.04,4.15c-.69,1.21-1.64,2.16-2.86,2.85-1.22.69-2.6,1.04-4.14,1.04Zm0-1.89c1.14,0,2.15-.25,3.03-.76s1.58-1.23,2.08-2.16.76-2,.76-3.22-.25-2.32-.76-3.24-1.21-1.63-2.08-2.15c-.88-.51-1.88-.76-3-.76s-2.12.25-3,.76c-.88.51-1.58,1.23-2.1,2.15-.52.92-.78,2-.78,3.24s.26,2.29.78,3.22c.52.93,1.21,1.65,2.08,2.16s1.86.76,2.98.76Z"/>
    <path d="m763.07,774.96l6.66-8.64-.03,1.05-6.33-8.16h2.4l5.19,6.75-.9-.03,5.19-6.72h2.34l-6.39,8.25.03-1.14,6.72,8.64h-2.43l-5.49-7.2.84.12-5.4,7.08h-2.4Z"/>
    <path d="m780.2,779.34l1.32-5.55.24,1.29c-.46,0-.85-.15-1.16-.45-.31-.3-.46-.69-.46-1.17s.15-.87.46-1.17c.31-.3.68-.45,1.12-.45s.83.16,1.12.48c.29.32.43.7.43,1.14,0,.16,0,.32-.03.48-.02.16-.06.34-.12.54-.06.2-.14.44-.24.72l-1.26,4.14h-1.44Z"/>
    <path d="m285.53,796.98v-1.77h9.75v1.77h-9.75Zm7.44,14.13c-1.48,0-2.62-.4-3.42-1.2s-1.2-1.93-1.2-3.39v-14.79h2.13v14.67c0,.92.23,1.63.71,2.13.47.5,1.14.75,2.02.75.94,0,1.72-.27,2.34-.81l.75,1.53c-.42.38-.92.66-1.51.84s-1.2.27-1.81.27Z"/>
    <path d="m306.29,811.11c-1.64,0-3.08-.35-4.32-1.04-1.24-.69-2.21-1.64-2.91-2.85-.7-1.21-1.05-2.59-1.05-4.15s.33-2.94,1-4.14,1.59-2.14,2.76-2.83c1.17-.69,2.48-1.04,3.94-1.04s2.79.34,3.95,1.01,2.05,1.61,2.71,2.82c.66,1.21.99,2.61.99,4.19,0,.1,0,.21-.01.31-.01.11-.02.23-.02.34h-13.71v-1.59h12.57l-.84.63c0-1.14-.25-2.15-.74-3.04-.49-.89-1.16-1.58-2-2.08-.84-.5-1.81-.75-2.91-.75s-2.05.25-2.91.75c-.86.5-1.53,1.2-2.01,2.1-.48.9-.72,1.93-.72,3.09v.33c0,1.2.26,2.25.79,3.17s1.27,1.62,2.22,2.13,2.04.76,3.26.76c.96,0,1.85-.17,2.68-.51s1.54-.86,2.14-1.56l1.2,1.38c-.7.84-1.58,1.48-2.62,1.92s-2.21.66-3.46.66Z"/>
    <path d="m329.81,811.11c-1.3,0-2.53-.19-3.69-.56-1.16-.37-2.07-.83-2.73-1.39l.96-1.68c.64.48,1.46.9,2.46,1.25,1,.35,2.05.53,3.15.53,1.5,0,2.58-.24,3.24-.71s.99-1.09.99-1.88c0-.58-.19-1.04-.55-1.37-.37-.33-.86-.58-1.46-.75-.6-.17-1.27-.31-2.01-.43-.74-.12-1.47-.26-2.2-.42-.73-.16-1.4-.39-2-.71-.6-.31-1.09-.74-1.46-1.28-.37-.54-.56-1.26-.56-2.16s.24-1.63.72-2.31c.48-.68,1.18-1.21,2.11-1.61.93-.39,2.07-.58,3.41-.58,1.02,0,2.04.14,3.06.41,1.02.27,1.86.62,2.52,1.07l-.93,1.71c-.7-.48-1.45-.83-2.25-1.04-.8-.21-1.6-.32-2.4-.32-1.42,0-2.46.25-3.13.74s-1,1.12-1,1.88c0,.6.18,1.07.55,1.41s.86.6,1.47.79,1.28.34,2.01.46c.73.12,1.46.27,2.19.43.73.17,1.4.4,2.01.69s1.1.7,1.47,1.23c.37.53.55,1.22.55,2.08,0,.92-.25,1.71-.76,2.38-.51.67-1.25,1.19-2.22,1.56-.97.37-2.14.56-3.52.56Z"/>
    <path d="m341.3,791.73c-.44,0-.81-.15-1.11-.45s-.45-.66-.45-1.08.15-.78.45-1.07c.3-.29.67-.43,1.11-.43s.81.14,1.11.42.45.63.45,1.05c0,.44-.15.81-.44,1.11-.29.3-.67.45-1.12.45Zm-1.08,19.23v-15.75h2.13v15.75h-2.13Z"/>
    <path d="m354.98,811.11c-1.64,0-3.08-.35-4.32-1.04-1.24-.69-2.21-1.64-2.91-2.85-.7-1.21-1.05-2.59-1.05-4.15s.33-2.94,1-4.14,1.59-2.14,2.76-2.83c1.17-.69,2.49-1.04,3.95-1.04s2.79.34,3.95,1.01c1.15.67,2.05,1.61,2.71,2.82.66,1.21.99,2.61.99,4.19,0,.1,0,.21-.02.31,0,.11-.01.23-.01.34h-13.71v-1.59h12.57l-.84.63c0-1.14-.25-2.15-.74-3.04-.49-.89-1.16-1.58-2-2.08-.84-.5-1.81-.75-2.91-.75s-2.05.25-2.91.75c-.86.5-1.53,1.2-2.01,2.1-.48.9-.72,1.93-.72,3.09v.33c0,1.2.26,2.25.79,3.17.53.91,1.27,1.62,2.22,2.13s2.04.76,3.25.76c.96,0,1.86-.17,2.69-.51.83-.34,1.54-.86,2.14-1.56l1.2,1.38c-.7.84-1.58,1.48-2.62,1.92s-2.21.66-3.46.66Z"/>
    <path d="m374.45,795.06c1.28,0,2.41.25,3.38.74s1.73,1.24,2.28,2.24c.55,1,.83,2.26.83,3.78v9.15h-2.13v-8.94c0-1.66-.42-2.91-1.25-3.76-.83-.85-2-1.28-3.5-1.28-1.12,0-2.1.23-2.92.68-.83.45-1.47,1.1-1.92,1.95-.45.85-.68,1.88-.68,3.08v8.28h-2.13v-15.75h2.04v4.32l-.33-.81c.5-1.14,1.3-2.03,2.4-2.68,1.1-.65,2.41-.98,3.93-.98Z"/>
    <path d="m384.23,796.98v-1.77h9.75v1.77h-9.75Zm7.44,14.13c-1.48,0-2.62-.4-3.42-1.2-.8-.8-1.2-1.93-1.2-3.39v-14.79h2.13v14.67c0,.92.24,1.63.71,2.13s1.14.75,2.03.75c.94,0,1.72-.27,2.34-.81l.75,1.53c-.42.38-.93.66-1.52.84s-1.2.27-1.81.27Z"/>
    <path d="m403.31,811.11c-1.18,0-2.21-.2-3.08-.58-.87-.39-1.54-.93-2-1.62-.46-.69-.69-1.49-.69-2.39,0-.82.19-1.56.58-2.23.39-.67,1.03-1.21,1.92-1.62.89-.41,2.08-.62,3.58-.62h5.43v1.59h-5.37c-1.52,0-2.58.27-3.17.81s-.88,1.21-.88,2.01c0,.9.35,1.62,1.05,2.16s1.68.81,2.94.81,2.23-.27,3.1-.83c.87-.55,1.5-1.34,1.91-2.38l.48,1.47c-.4,1.04-1.1,1.87-2.09,2.49-.99.62-2.23.93-3.73.93Zm5.43-.15v-3.48l-.09-.57v-5.82c0-1.34-.38-2.37-1.12-3.09s-1.87-1.08-3.34-1.08c-1.02,0-1.99.17-2.91.51-.92.34-1.7.79-2.34,1.35l-.96-1.59c.8-.68,1.76-1.21,2.88-1.58s2.3-.56,3.54-.56c2.04,0,3.62.51,4.72,1.52,1.11,1.01,1.67,2.54,1.67,4.6v9.78h-2.04Z"/>
    <path d="m420.8,811.11c-1.3,0-2.53-.19-3.69-.56-1.16-.37-2.07-.83-2.73-1.39l.96-1.68c.64.48,1.46.9,2.46,1.25,1,.35,2.05.53,3.15.53,1.5,0,2.58-.24,3.24-.71s.99-1.09.99-1.88c0-.58-.19-1.04-.55-1.37-.37-.33-.86-.58-1.46-.75-.6-.17-1.27-.31-2.01-.43-.74-.12-1.47-.26-2.2-.42-.73-.16-1.4-.39-2-.71-.6-.31-1.09-.74-1.46-1.28-.37-.54-.56-1.26-.56-2.16s.24-1.63.72-2.31c.48-.68,1.18-1.21,2.11-1.61.93-.39,2.07-.58,3.41-.58,1.02,0,2.04.14,3.06.41,1.02.27,1.86.62,2.52,1.07l-.93,1.71c-.7-.48-1.45-.83-2.25-1.04-.8-.21-1.6-.32-2.4-.32-1.42,0-2.46.25-3.13.74s-1,1.12-1,1.88c0,.6.18,1.07.55,1.41s.86.6,1.47.79,1.28.34,2.01.46c.73.12,1.46.27,2.19.43.73.17,1.4.4,2.01.69s1.1.7,1.47,1.23c.37.53.55,1.22.55,2.08,0,.92-.25,1.71-.76,2.38-.51.67-1.25,1.19-2.22,1.56-.97.37-2.14.56-3.52.56Z"/>
    <path d="m445.76,811.11c-1.64,0-3.08-.35-4.32-1.04-1.24-.69-2.21-1.64-2.91-2.85-.7-1.21-1.05-2.59-1.05-4.15s.33-2.94,1-4.14,1.59-2.14,2.76-2.83c1.17-.69,2.49-1.04,3.95-1.04s2.79.34,3.95,1.01c1.15.67,2.05,1.61,2.71,2.82.66,1.21.99,2.61.99,4.19,0,.1,0,.21-.02.31,0,.11-.01.23-.01.34h-13.71v-1.59h12.57l-.84.63c0-1.14-.25-2.15-.74-3.04-.49-.89-1.16-1.58-2-2.08-.84-.5-1.81-.75-2.91-.75s-2.05.25-2.91.75c-.86.5-1.53,1.2-2.01,2.1-.48.9-.72,1.93-.72,3.09v.33c0,1.2.26,2.25.79,3.17.53.91,1.27,1.62,2.22,2.13s2.04.76,3.25.76c.96,0,1.86-.17,2.69-.51.83-.34,1.54-.86,2.14-1.56l1.2,1.38c-.7.84-1.58,1.48-2.62,1.92s-2.21.66-3.46.66Z"/>
    <path d="m465.23,795.06c1.28,0,2.41.25,3.38.74s1.73,1.24,2.28,2.24c.55,1,.83,2.26.83,3.78v9.15h-2.13v-8.94c0-1.66-.42-2.91-1.25-3.76-.83-.85-2-1.28-3.5-1.28-1.12,0-2.1.23-2.92.68-.83.45-1.47,1.1-1.92,1.95-.45.85-.68,1.88-.68,3.08v8.28h-2.13v-15.75h2.04v4.32l-.33-.81c.5-1.14,1.3-2.03,2.4-2.68,1.1-.65,2.41-.98,3.93-.98Z"/>
    <path d="m491.84,811.11c-1.34,0-2.51-.25-3.51-.75s-1.77-1.25-2.33-2.25c-.55-1-.82-2.25-.82-3.75v-9.15h2.13v8.91c0,1.68.42,2.95,1.25,3.79.83.85,2,1.28,3.5,1.28,1.1,0,2.05-.23,2.86-.68.81-.45,1.43-1.1,1.86-1.96.43-.86.64-1.89.64-3.09v-8.25h2.13v15.75h-2.04v-4.32l.33.78c-.5,1.16-1.28,2.07-2.33,2.71-1.05.65-2.28.98-3.67.98Z"/>
    <path d="m513.53,795.06c1.28,0,2.41.25,3.38.74s1.73,1.24,2.28,2.24c.55,1,.83,2.26.83,3.78v9.15h-2.13v-8.94c0-1.66-.42-2.91-1.25-3.76-.83-.85-2-1.28-3.5-1.28-1.12,0-2.1.23-2.92.68-.83.45-1.47,1.1-1.92,1.95-.45.85-.68,1.88-.68,3.08v8.28h-2.13v-15.75h2.04v4.32l-.33-.81c.5-1.14,1.3-2.03,2.4-2.68,1.1-.65,2.41-.98,3.93-.98Z"/>
    <path d="m530.21,811.11c-1.18,0-2.21-.2-3.08-.58-.87-.39-1.54-.93-2-1.62-.46-.69-.69-1.49-.69-2.39,0-.82.19-1.56.58-2.23.39-.67,1.03-1.21,1.92-1.62.89-.41,2.08-.62,3.58-.62h5.43v1.59h-5.37c-1.52,0-2.58.27-3.17.81s-.88,1.21-.88,2.01c0,.9.35,1.62,1.05,2.16s1.68.81,2.94.81,2.23-.27,3.1-.83c.87-.55,1.5-1.34,1.91-2.38l.48,1.47c-.4,1.04-1.1,1.87-2.09,2.49-.99.62-2.23.93-3.73.93Zm5.43-.15v-3.48l-.09-.57v-5.82c0-1.34-.38-2.37-1.12-3.09s-1.87-1.08-3.34-1.08c-1.02,0-1.99.17-2.91.51-.92.34-1.7.79-2.34,1.35l-.96-1.59c.8-.68,1.76-1.21,2.88-1.58s2.3-.56,3.54-.56c2.04,0,3.62.51,4.72,1.52,1.11,1.01,1.67,2.54,1.67,4.6v9.78h-2.04Z"/>
    <path d="m571.01,795.06c1.28,0,2.39.25,3.34.74.95.49,1.69,1.24,2.22,2.24s.79,2.26.79,3.78v9.15h-2.13v-8.94c0-1.66-.4-2.91-1.18-3.76-.79-.85-1.91-1.28-3.35-1.28-1.08,0-2.01.23-2.8.68-.79.45-1.4,1.1-1.83,1.95-.43.85-.64,1.88-.64,3.08v8.28h-2.13v-8.94c0-1.66-.4-2.91-1.2-3.76-.8-.85-1.92-1.28-3.36-1.28-1.06,0-1.99.23-2.79.68-.8.45-1.42,1.1-1.84,1.95-.43.85-.65,1.88-.65,3.08v8.28h-2.13v-15.75h2.04v4.26l-.33-.75c.48-1.14,1.25-2.03,2.33-2.68,1.07-.65,2.33-.98,3.79-.98,1.54,0,2.85.39,3.93,1.16,1.08.77,1.78,1.92,2.1,3.46l-.84-.33c.46-1.28,1.27-2.31,2.44-3.1,1.17-.79,2.58-1.19,4.22-1.19Z"/>
    <path d="m589.85,811.11c-1.64,0-3.08-.35-4.32-1.04-1.24-.69-2.21-1.64-2.91-2.85-.7-1.21-1.05-2.59-1.05-4.15s.33-2.94,1-4.14,1.59-2.14,2.76-2.83c1.17-.69,2.49-1.04,3.95-1.04s2.79.34,3.95,1.01c1.15.67,2.05,1.61,2.71,2.82.66,1.21.99,2.61.99,4.19,0,.1,0,.21-.02.31,0,.11-.01.23-.01.34h-13.71v-1.59h12.57l-.84.63c0-1.14-.25-2.15-.74-3.04-.49-.89-1.16-1.58-2-2.08-.84-.5-1.81-.75-2.91-.75s-2.05.25-2.91.75c-.86.5-1.53,1.2-2.01,2.1-.48.9-.72,1.93-.72,3.09v.33c0,1.2.26,2.25.79,3.17.53.91,1.27,1.62,2.22,2.13s2.04.76,3.25.76c.96,0,1.86-.17,2.69-.51.83-.34,1.54-.86,2.14-1.56l1.2,1.38c-.7.84-1.58,1.48-2.62,1.92s-2.21.66-3.46.66Z"/>
    <path d="m605.51,811.11c-1.3,0-2.53-.19-3.69-.56-1.16-.37-2.07-.83-2.73-1.39l.96-1.68c.64.48,1.46.9,2.46,1.25,1,.35,2.05.53,3.15.53,1.5,0,2.58-.24,3.24-.71s.99-1.09.99-1.88c0-.58-.19-1.04-.55-1.37-.37-.33-.86-.58-1.46-.75-.6-.17-1.27-.31-2.01-.43-.74-.12-1.47-.26-2.2-.42-.73-.16-1.4-.39-2-.71-.6-.31-1.09-.74-1.46-1.28-.37-.54-.56-1.26-.56-2.16s.24-1.63.72-2.31c.48-.68,1.18-1.21,2.11-1.61.93-.39,2.07-.58,3.41-.58,1.02,0,2.04.14,3.06.41,1.02.27,1.86.62,2.52,1.07l-.93,1.71c-.7-.48-1.45-.83-2.25-1.04-.8-.21-1.6-.32-2.4-.32-1.42,0-2.46.25-3.13.74s-1,1.12-1,1.88c0,.6.18,1.07.55,1.41s.86.6,1.47.79,1.28.34,2.01.46c.73.12,1.46.27,2.19.43.73.17,1.4.4,2.01.69s1.1.7,1.47,1.23c.37.53.55,1.22.55,2.08,0,.92-.25,1.71-.76,2.38-.51.67-1.25,1.19-2.22,1.56-.97.37-2.14.56-3.52.56Z"/>
    <path d="m620.36,811.11c-1.18,0-2.21-.2-3.08-.58-.87-.39-1.54-.93-2-1.62-.46-.69-.69-1.49-.69-2.39,0-.82.19-1.56.58-2.23.39-.67,1.03-1.21,1.92-1.62.89-.41,2.08-.62,3.58-.62h5.43v1.59h-5.37c-1.52,0-2.58.27-3.17.81s-.88,1.21-.88,2.01c0,.9.35,1.62,1.05,2.16s1.68.81,2.94.81,2.23-.27,3.1-.83c.87-.55,1.5-1.34,1.91-2.38l.48,1.47c-.4,1.04-1.1,1.87-2.09,2.49-.99.62-2.23.93-3.73.93Zm5.43-.15v-3.48l-.09-.57v-5.82c0-1.34-.38-2.37-1.12-3.09s-1.87-1.08-3.34-1.08c-1.02,0-1.99.17-2.91.51-.92.34-1.7.79-2.34,1.35l-.96-1.59c.8-.68,1.76-1.21,2.88-1.58s2.3-.56,3.54-.56c2.04,0,3.62.51,4.72,1.52,1.11,1.01,1.67,2.54,1.67,4.6v9.78h-2.04Z"/>
    <path d="m639.14,816.93c-.64,0-1.25-.08-1.84-.25s-1.08-.42-1.49-.76l.75-1.62c.64.54,1.46.81,2.46.81.84,0,1.49-.25,1.94-.75.45-.5.67-1.24.67-2.22v-16.92h2.13v16.92c0,1.46-.4,2.62-1.18,3.5-.79.87-1.94,1.3-3.44,1.3Zm3.57-25.2c-.44,0-.81-.15-1.11-.45-.3-.3-.45-.66-.45-1.08s.15-.78.45-1.07c.3-.29.67-.43,1.11-.43s.81.14,1.11.42c.3.28.45.63.45,1.05,0,.44-.15.81-.43,1.11-.29.3-.67.45-1.12.45Z"/>
    <path d="m656.21,811.11c-1.34,0-2.51-.25-3.51-.75s-1.77-1.25-2.33-2.25c-.55-1-.82-2.25-.82-3.75v-9.15h2.13v8.91c0,1.68.42,2.95,1.25,3.79.83.85,2,1.28,3.5,1.28,1.1,0,2.05-.23,2.86-.68.81-.45,1.43-1.1,1.86-1.96.43-.86.64-1.89.64-3.09v-8.25h2.13v15.75h-2.04v-4.32l.33.78c-.5,1.16-1.28,2.07-2.33,2.71-1.05.65-2.28.98-3.67.98Z"/>
    <path d="m677.9,795.06c1.28,0,2.41.25,3.38.74s1.73,1.24,2.28,2.24c.55,1,.83,2.26.83,3.78v9.15h-2.13v-8.94c0-1.66-.42-2.91-1.25-3.76-.83-.85-2-1.28-3.5-1.28-1.12,0-2.1.23-2.92.68-.83.45-1.47,1.1-1.92,1.95-.45.85-.68,1.88-.68,3.08v8.28h-2.13v-15.75h2.04v4.32l-.33-.81c.5-1.14,1.3-2.03,2.4-2.68,1.1-.65,2.41-.98,3.93-.98Z"/>
    <path d="m687.68,796.98v-1.77h9.75v1.77h-9.75Zm7.44,14.13c-1.48,0-2.62-.4-3.42-1.2-.8-.8-1.2-1.93-1.2-3.39v-14.79h2.13v14.67c0,.92.24,1.63.71,2.13s1.14.75,2.03.75c.94,0,1.72-.27,2.34-.81l.75,1.53c-.42.38-.93.66-1.52.84s-1.2.27-1.81.27Z"/>
    <path d="m708.17,811.11c-1.54,0-2.91-.35-4.11-1.04-1.2-.69-2.15-1.65-2.85-2.87s-1.05-2.6-1.05-4.14.35-2.97,1.05-4.17c.7-1.2,1.65-2.14,2.85-2.82s2.57-1.02,4.11-1.02,2.95.35,4.16,1.04c1.21.69,2.16,1.63,2.85,2.82.69,1.19,1.04,2.58,1.04,4.16s-.34,2.94-1.04,4.15c-.69,1.21-1.64,2.16-2.86,2.85-1.22.69-2.6,1.04-4.14,1.04Zm0-1.89c1.14,0,2.15-.25,3.03-.76s1.58-1.23,2.08-2.16.76-2,.76-3.22-.25-2.32-.76-3.24-1.21-1.63-2.08-2.15c-.88-.51-1.88-.76-3-.76s-2.12.25-3,.76c-.88.51-1.58,1.23-2.1,2.15-.52.92-.78,2-.78,3.24s.26,2.29.78,3.22c.52.93,1.21,1.65,2.08,2.16s1.86.76,2.98.76Z"/>
    <path d="m732.86,811.11c-1.18,0-2.21-.2-3.08-.58-.87-.39-1.54-.93-2-1.62-.46-.69-.69-1.49-.69-2.39,0-.82.19-1.56.58-2.23.39-.67,1.03-1.21,1.92-1.62.89-.41,2.08-.62,3.58-.62h5.43v1.59h-5.37c-1.52,0-2.58.27-3.17.81s-.88,1.21-.88,2.01c0,.9.35,1.62,1.05,2.16s1.68.81,2.94.81,2.23-.27,3.1-.83c.87-.55,1.5-1.34,1.91-2.38l.48,1.47c-.4,1.04-1.1,1.87-2.09,2.49-.99.62-2.23.93-3.73.93Zm5.43-.15v-3.48l-.09-.57v-5.82c0-1.34-.38-2.37-1.12-3.09s-1.87-1.08-3.34-1.08c-1.02,0-1.99.17-2.91.51-.92.34-1.7.79-2.34,1.35l-.96-1.59c.8-.68,1.76-1.21,2.88-1.58s2.3-.56,3.54-.56c2.04,0,3.62.51,4.72,1.52,1.11,1.01,1.67,2.54,1.67,4.6v9.78h-2.04Z"/>
    <path d="m753.98,810.96v-22.26h2.13v22.26h-2.13Z"/>
    <path d="m766.49,811.11c-1.18,0-2.21-.2-3.08-.58-.87-.39-1.54-.93-2-1.62-.46-.69-.69-1.49-.69-2.39,0-.82.19-1.56.58-2.23.39-.67,1.03-1.21,1.92-1.62.89-.41,2.08-.62,3.58-.62h5.43v1.59h-5.37c-1.52,0-2.58.27-3.17.81s-.88,1.21-.88,2.01c0,.9.35,1.62,1.05,2.16s1.68.81,2.94.81,2.23-.27,3.1-.83c.87-.55,1.5-1.34,1.91-2.38l.48,1.47c-.4,1.04-1.1,1.87-2.09,2.49-.99.62-2.23.93-3.73.93Zm5.43-.15v-3.48l-.09-.57v-5.82c0-1.34-.38-2.37-1.12-3.09s-1.87-1.08-3.34-1.08c-1.02,0-1.99.17-2.91.51-.92.34-1.7.79-2.34,1.35l-.96-1.59c.8-.68,1.76-1.21,2.88-1.58s2.3-.56,3.54-.56c2.04,0,3.62.51,4.72,1.52,1.11,1.01,1.67,2.54,1.67,4.6v9.78h-2.04Z"/>
    <path d="m292.04,846.96l-6.99-15.75h2.22l6.42,14.61h-1.05l6.51-14.61h2.1l-7.02,15.75h-2.19Z"/>
    <path d="m310.49,847.11c-1.64,0-3.08-.35-4.32-1.04-1.24-.69-2.21-1.64-2.91-2.85-.7-1.21-1.05-2.59-1.05-4.15s.33-2.94,1-4.14,1.59-2.14,2.76-2.83c1.17-.69,2.49-1.04,3.95-1.04s2.79.34,3.95,1.01c1.15.67,2.05,1.61,2.71,2.82.66,1.21.99,2.61.99,4.19,0,.1,0,.21-.02.31,0,.11-.01.23-.01.34h-13.71v-1.59h12.57l-.84.63c0-1.14-.25-2.15-.73-3.04-.49-.89-1.16-1.58-2-2.08-.84-.5-1.81-.75-2.91-.75s-2.05.25-2.91.75c-.86.5-1.53,1.2-2.01,2.1-.48.9-.72,1.93-.72,3.09v.33c0,1.2.26,2.25.79,3.17.53.91,1.27,1.62,2.22,2.13.95.51,2.04.76,3.25.76.96,0,1.85-.17,2.68-.51s1.55-.86,2.15-1.56l1.2,1.38c-.7.84-1.58,1.48-2.62,1.92s-2.21.66-3.46.66Z"/>
    <path d="m329.96,831.06c1.28,0,2.41.25,3.38.74s1.73,1.24,2.28,2.24c.55,1,.83,2.26.83,3.78v9.15h-2.13v-8.94c0-1.66-.42-2.91-1.25-3.76-.83-.85-2-1.28-3.5-1.28-1.12,0-2.1.23-2.92.68-.83.45-1.47,1.1-1.92,1.95-.45.85-.68,1.88-.68,3.08v8.28h-2.13v-15.75h2.04v4.32l-.33-.81c.5-1.14,1.3-2.03,2.4-2.68,1.1-.65,2.41-.98,3.93-.98Z"/>
    <path d="m339.74,832.98v-1.77h9.75v1.77h-9.75Zm7.44,14.13c-1.48,0-2.62-.4-3.42-1.2-.8-.8-1.2-1.93-1.2-3.39v-14.79h2.13v14.67c0,.92.24,1.63.71,2.13s1.14.75,2.03.75c.94,0,1.72-.27,2.34-.81l.75,1.53c-.42.38-.93.66-1.52.84s-1.2.27-1.81.27Z"/>
    <path d="m358.82,847.11c-1.18,0-2.21-.2-3.08-.58-.87-.39-1.54-.93-2-1.62-.46-.69-.69-1.49-.69-2.39,0-.82.19-1.56.58-2.23.39-.67,1.03-1.21,1.92-1.62.89-.41,2.08-.62,3.58-.62h5.43v1.59h-5.37c-1.52,0-2.58.27-3.17.81s-.88,1.21-.88,2.01c0,.9.35,1.62,1.05,2.16s1.68.81,2.94.81,2.23-.27,3.1-.83c.87-.55,1.5-1.34,1.91-2.38l.48,1.47c-.4,1.04-1.1,1.87-2.09,2.49-.99.62-2.23.93-3.73.93Zm5.43-.15v-3.48l-.09-.57v-5.82c0-1.34-.38-2.37-1.12-3.09s-1.87-1.08-3.34-1.08c-1.02,0-1.99.17-2.91.51-.92.34-1.7.79-2.34,1.35l-.96-1.59c.8-.68,1.76-1.21,2.88-1.58s2.3-.56,3.54-.56c2.04,0,3.62.51,4.72,1.52,1.11,1.01,1.67,2.54,1.67,4.6v9.78h-2.04Z"/>
    <path d="m380.12,831.06c1.28,0,2.41.25,3.38.74s1.73,1.24,2.28,2.24c.55,1,.83,2.26.83,3.78v9.15h-2.13v-8.94c0-1.66-.42-2.91-1.25-3.76-.83-.85-2-1.28-3.5-1.28-1.12,0-2.1.23-2.92.68-.83.45-1.47,1.1-1.92,1.95-.45.85-.68,1.88-.68,3.08v8.28h-2.13v-15.75h2.04v4.32l-.33-.81c.5-1.14,1.3-2.03,2.4-2.68,1.1-.65,2.41-.98,3.93-.98Z"/>
    <path d="m396.8,847.11c-1.18,0-2.21-.2-3.08-.58-.87-.39-1.54-.93-2-1.62-.46-.69-.69-1.49-.69-2.39,0-.82.19-1.56.58-2.23.39-.67,1.03-1.21,1.92-1.62.89-.41,2.08-.62,3.58-.62h5.43v1.59h-5.37c-1.52,0-2.58.27-3.17.81s-.88,1.21-.88,2.01c0,.9.35,1.62,1.05,2.16s1.68.81,2.94.81,2.23-.27,3.1-.83c.87-.55,1.5-1.34,1.91-2.38l.48,1.47c-.4,1.04-1.1,1.87-2.09,2.49-.99.62-2.23.93-3.73.93Zm5.43-.15v-3.48l-.09-.57v-5.82c0-1.34-.38-2.37-1.12-3.09s-1.87-1.08-3.34-1.08c-1.02,0-1.99.17-2.91.51-.92.34-1.7.79-2.34,1.35l-.96-1.59c.8-.68,1.76-1.21,2.88-1.58s2.3-.56,3.54-.56c2.04,0,3.62.51,4.72,1.52,1.11,1.01,1.67,2.54,1.67,4.6v9.78h-2.04Z"/>
    <path d="m418.04,852.93c-.74,0-1.45-.12-2.12-.36-.67-.24-1.24-.6-1.72-1.08l.99-1.59c.4.38.83.67,1.3.88s1,.31,1.58.31c.7,0,1.3-.19,1.81-.58.51-.39,1-1.08,1.46-2.05l1.02-2.31.24-.33,6.48-14.61h2.1l-7.89,17.64c-.44,1.02-.92,1.83-1.46,2.43-.53.6-1.11,1.02-1.72,1.27-.62.25-1.31.38-2.07.38Zm4.2-5.52l-7.26-16.2h2.22l6.42,14.46-1.38,1.74Z"/>
    <path d="m448.73,847.11c-1.64,0-3.08-.35-4.32-1.04-1.24-.69-2.21-1.64-2.91-2.85-.7-1.21-1.05-2.59-1.05-4.15s.33-2.94,1-4.14,1.59-2.14,2.76-2.83c1.17-.69,2.49-1.04,3.95-1.04s2.79.34,3.95,1.01c1.15.67,2.05,1.61,2.71,2.82.66,1.21.99,2.61.99,4.19,0,.1,0,.21-.02.31,0,.11-.01.23-.01.34h-13.71v-1.59h12.57l-.84.63c0-1.14-.25-2.15-.74-3.04-.49-.89-1.16-1.58-2-2.08-.84-.5-1.81-.75-2.91-.75s-2.05.25-2.91.75c-.86.5-1.53,1.2-2.01,2.1-.48.9-.72,1.93-.72,3.09v.33c0,1.2.26,2.25.79,3.17.53.91,1.27,1.62,2.22,2.13s2.04.76,3.25.76c.96,0,1.86-.17,2.69-.51.83-.34,1.54-.86,2.14-1.56l1.2,1.38c-.7.84-1.58,1.48-2.62,1.92s-2.21.66-3.46.66Z"/>
    <path d="m464.39,847.11c-1.3,0-2.53-.19-3.69-.56-1.16-.37-2.07-.83-2.73-1.39l.96-1.68c.64.48,1.46.9,2.46,1.25,1,.35,2.05.53,3.15.53,1.5,0,2.58-.24,3.24-.71s.99-1.09.99-1.88c0-.58-.19-1.04-.55-1.37-.37-.33-.86-.58-1.46-.75-.6-.17-1.27-.31-2.01-.43-.74-.12-1.47-.26-2.2-.42-.73-.16-1.4-.39-2-.71-.6-.31-1.09-.74-1.46-1.28-.37-.54-.56-1.26-.56-2.16s.24-1.63.72-2.31c.48-.68,1.18-1.21,2.11-1.61.93-.39,2.07-.58,3.41-.58,1.02,0,2.04.14,3.06.41,1.02.27,1.86.62,2.52,1.07l-.93,1.71c-.7-.48-1.45-.83-2.25-1.04-.8-.21-1.6-.32-2.4-.32-1.42,0-2.46.25-3.13.74s-1,1.12-1,1.88c0,.6.18,1.07.55,1.41s.86.6,1.47.79,1.28.34,2.01.46c.73.12,1.46.27,2.19.43.73.17,1.4.4,2.01.69s1.1.7,1.47,1.23c.37.53.55,1.22.55,2.08,0,.92-.25,1.71-.76,2.38-.51.67-1.25,1.19-2.22,1.56-.97.37-2.14.56-3.52.56Z"/>
    <path d="m474.8,852.78v-21.57h2.04v4.74l-.21,3.15.3,3.18v10.5h-2.13Zm8.13-5.67c-1.36,0-2.59-.32-3.69-.95-1.1-.63-1.98-1.54-2.62-2.73-.65-1.19-.98-2.64-.98-4.36s.32-3.17.96-4.37c.64-1.19,1.51-2.09,2.61-2.71s2.34-.93,3.72-.93c1.5,0,2.85.34,4.04,1.01s2.12,1.61,2.81,2.82c.68,1.21,1.02,2.61,1.02,4.19s-.34,3-1.02,4.2c-.68,1.2-1.62,2.14-2.81,2.82-1.19.68-2.54,1.02-4.04,1.02Zm-.15-1.89c1.12,0,2.12-.25,3-.76.88-.51,1.58-1.23,2.1-2.16s.78-2,.78-3.22-.26-2.29-.78-3.21-1.22-1.64-2.1-2.16c-.88-.52-1.88-.78-3-.78s-2.13.26-3.02.78-1.59,1.24-2.1,2.16-.76,1.99-.76,3.21.25,2.29.76,3.22,1.21,1.65,2.1,2.16,1.9.76,3.02.76Z"/>
    <path d="m501.83,847.11c-1.64,0-3.08-.35-4.32-1.04-1.24-.69-2.21-1.64-2.91-2.85-.7-1.21-1.05-2.59-1.05-4.15s.33-2.94,1-4.14,1.59-2.14,2.76-2.83c1.17-.69,2.49-1.04,3.95-1.04s2.79.34,3.95,1.01c1.15.67,2.05,1.61,2.71,2.82.66,1.21.99,2.61.99,4.19,0,.1,0,.21-.02.31,0,.11-.01.23-.01.34h-13.71v-1.59h12.57l-.84.63c0-1.14-.25-2.15-.74-3.04-.49-.89-1.16-1.58-2-2.08-.84-.5-1.81-.75-2.91-.75s-2.05.25-2.91.75c-.86.5-1.53,1.2-2.01,2.1-.48.9-.72,1.93-.72,3.09v.33c0,1.2.26,2.25.79,3.17.53.91,1.27,1.62,2.22,2.13s2.04.76,3.25.76c.96,0,1.86-.17,2.69-.51.83-.34,1.54-.86,2.14-1.56l1.2,1.38c-.7.84-1.58,1.48-2.62,1.92s-2.21.66-3.46.66Z"/>
    <path d="m513.26,846.96v-15.75h2.04v4.29l-.21-.75c.44-1.2,1.18-2.12,2.22-2.75s2.33-.95,3.87-.95v2.07c-.08,0-.16,0-.24-.01-.08,0-.16-.02-.24-.02-1.66,0-2.96.51-3.9,1.52s-1.41,2.44-1.41,4.3v8.04h-2.13Z"/>
    <path d="m528.32,847.11c-1.18,0-2.21-.2-3.08-.58-.87-.39-1.54-.93-2-1.62-.46-.69-.69-1.49-.69-2.39,0-.82.19-1.56.58-2.23.39-.67,1.03-1.21,1.92-1.62.89-.41,2.08-.62,3.58-.62h5.43v1.59h-5.37c-1.52,0-2.58.27-3.17.81s-.88,1.21-.88,2.01c0,.9.35,1.62,1.05,2.16s1.68.81,2.94.81,2.23-.27,3.1-.83c.87-.55,1.5-1.34,1.91-2.38l.48,1.47c-.4,1.04-1.1,1.87-2.09,2.49-.99.62-2.23.93-3.73.93Zm5.43-.15v-3.48l-.09-.57v-5.82c0-1.34-.38-2.37-1.12-3.09s-1.87-1.08-3.34-1.08c-1.02,0-1.99.17-2.91.51-.92.34-1.7.79-2.34,1.35l-.96-1.59c.8-.68,1.76-1.21,2.88-1.58s2.3-.56,3.54-.56c2.04,0,3.62.51,4.72,1.52,1.11,1.01,1.67,2.54,1.67,4.6v9.78h-2.04Z"/>
    <path d="m545.81,847.11c-1.3,0-2.53-.19-3.69-.56-1.16-.37-2.07-.83-2.73-1.39l.96-1.68c.64.48,1.46.9,2.46,1.25,1,.35,2.05.53,3.15.53,1.5,0,2.58-.24,3.24-.71s.99-1.09.99-1.88c0-.58-.19-1.04-.55-1.37-.37-.33-.86-.58-1.46-.75-.6-.17-1.27-.31-2.01-.43-.74-.12-1.47-.26-2.2-.42-.73-.16-1.4-.39-2-.71-.6-.31-1.09-.74-1.46-1.28-.37-.54-.56-1.26-.56-2.16s.24-1.63.72-2.31c.48-.68,1.18-1.21,2.11-1.61.93-.39,2.07-.58,3.41-.58,1.02,0,2.04.14,3.06.41,1.02.27,1.86.62,2.52,1.07l-.93,1.71c-.7-.48-1.45-.83-2.25-1.04-.8-.21-1.6-.32-2.4-.32-1.42,0-2.46.25-3.13.74s-1,1.12-1,1.88c0,.6.18,1.07.55,1.41s.86.6,1.47.79,1.28.34,2.01.46c.73.12,1.46.27,2.19.43.73.17,1.4.4,2.01.69s1.1.7,1.47,1.23c.37.53.55,1.22.55,2.08,0,.92-.25,1.71-.76,2.38-.51.67-1.25,1.19-2.22,1.56-.97.37-2.14.56-3.52.56Z"/>
    <path d="m556.43,847.11c-.44,0-.81-.16-1.12-.48-.31-.32-.46-.71-.46-1.17s.16-.87.46-1.17c.31-.3.69-.45,1.12-.45s.82.15,1.12.45c.31.3.46.69.46,1.17s-.15.85-.46,1.17c-.31.32-.68.48-1.12.48Z"/>
  </g>
</svg>