<?xml version="1.0" encoding="UTF-8"?>
<svg id="Capa_1" data-name="Capa 1" xmlns="http://www.w3.org/2000/svg" xmlns:xlink="http://www.w3.org/1999/xlink" viewBox="0 0 1080 1080">
  <defs>
    <style>
      .cls-1 {
        font-family: MontserratRoman-Light, Montserrat;
        font-size: 30px;
        font-variation-settings: 'wght' 300;
        font-weight: 300;
      }

      .cls-2 {
        clip-path: url(#clippath-2);
      }

      .cls-3 {
        letter-spacing: -.02em;
      }

      .cls-4 {
        letter-spacing: -.01em;
      }

      .cls-5 {
        clip-path: url(#clippath-1);
      }

      .cls-6 {
        letter-spacing: -.02em;
      }

      .cls-7 {
        letter-spacing: -.01em;
      }

      .cls-8 {
        letter-spacing: 0em;
      }

      .cls-9 {
        letter-spacing: -.05em;
      }

      .cls-10 {
        clip-path: url(#clippath);
      }

      .cls-11 {
        fill: none;
      }

      .cls-12 {
        letter-spacing: -.05em;
      }

      .cls-13 {
        letter-spacing: 0em;
      }

      .cls-14 {
        letter-spacing: -.02em;
      }
    </style>
    <clipPath id="clippath">
      <rect class="cls-11" x="-1100" width="1080" height="1080"/>
    </clipPath>
    <clipPath id="clippath-1">
      <rect class="cls-11" width="1080" height="540"/>
    </clipPath>
    <clipPath id="clippath-2">
      <rect class="cls-11" x="1100" y="0" width="1080" height="1080"/>
    </clipPath>
  </defs>
  <rect class="cls-11" y="0" width="1080" height="1080"/>
  <g class="cls-10">
    <image width="1920" height="1080" transform="translate(-1520 0)" xlink:href="../../../../Downloads/web-3,-4-y-8.png"/>
  </g>
  <g class="cls-5">
    <image width="1920" height="1080" transform="translate(0 -28.75) scale(.56)" xlink:href="../../../../Downloads/web-6.png"/>
  </g>
  <text class="cls-1" transform="translate(285.02 695.13)"><tspan class="cls-7" x="0" y="0">P</tspan><tspan x="21.06" y="0">o</tspan><tspan class="cls-13" x="39.66" y="0">c</tspan><tspan x="56.04" y="0">o después pides un pla</tspan><tspan class="cls-14" x="396.96" y="0">t</tspan><tspan x="408.32" y="0">o de </tspan><tspan x="0" y="36">so</tspan><tspan class="cls-8" x="32.94" y="36">p</tspan><tspan x="53.13" y="36">a. Más ta</tspan><tspan class="cls-4" x="181.98" y="36">r</tspan><tspan x="193.38" y="36">de enca</tspan><tspan class="cls-4" x="311.49" y="36">r</tspan><tspan x="322.89" y="36">gas un </tspan><tspan x="0" y="72">bocadillo de ques</tspan><tspan class="cls-3" x="261.48" y="72">o</tspan><tspan x="279.57" y="72">.</tspan><tspan x="0" y="144">Mi</tspan><tspan class="cls-12" x="36.51" y="144">r</tspan><tspan x="46.89" y="144">as la ho</tspan><tspan class="cls-12" x="158.25" y="144">r</tspan><tspan x="168.63" y="144">a: es la una menos </tspan><tspan class="cls-6" x="0" y="180">v</tspan><tspan x="15.39" y="180">einti</tspan><tspan class="cls-13" x="81.09" y="180">c</tspan><tspan x="97.47" y="180">in</tspan><tspan class="cls-13" x="125.49" y="180">c</tspan><tspan class="cls-3" x="141.87" y="180">o</tspan><tspan x="159.96" y="180">. </tspan><tspan class="cls-13" x="173.67" y="180">E</tspan><tspan x="193.47" y="180">stá bien, piensas, </tspan><tspan x="0" y="216">espe</tspan><tspan class="cls-12" x="70.41" y="216">r</tspan><tspan x="80.79" y="216">a</tspan><tspan class="cls-4" x="98.28" y="216">r</tspan><tspan x="109.68" y="216">é un </tspan><tspan class="cls-12" x="183.27" y="216">r</tspan><tspan x="193.65" y="216">a</tspan><tspan class="cls-14" x="211.14" y="216">t</tspan><tspan x="222.51" y="216">o más. </tspan><tspan class="cls-9" x="326.28" y="216">T</tspan><tspan x="341.52" y="216">omas el </tspan><tspan x="0" y="252">post</tspan><tspan class="cls-4" x="65.13" y="252">r</tspan><tspan x="76.53" y="252">e.</tspan></text>
  <g class="cls-2">
    <image width="1920" height="1649" transform="translate(985.57 0) scale(.65)" xlink:href="../../../../Downloads/web-9 (1).png"/>
  </g>
</svg>