<?xml version="1.0" encoding="UTF-8"?>
<svg id="Capa_2" data-name="Capa 2" xmlns="http://www.w3.org/2000/svg" viewBox="0 0 5445.27 476.67">
  <g id="Capa_1-2" data-name="Capa 1">
    <g>
      <path d="m182.07,6.63c9.26,0,16.55,6.63,16.55,16.55v66.22c0,14.54-13.25,17.87-29.8,17.87-15.22,0-33.76-2.65-48.32-2.65-12.59,0-21.18,1.97-21.18,11.25v66.22c0,9.24,8.6,11.25,19.86,11.25,11.91,0,27.13-2.65,39.72-2.65,15.22,0,27.13,3.3,27.13,17.87v59.6c0,14.54-12.57,17.87-27.79,17.87-12.59,0-27.81-2.65-39.06-2.65s-19.86,2.65-19.86,11.25v66.19c0,8.63,8.6,11.28,21.18,11.28,13.9,0,32.43-3.33,48.32-3.33s29.8,3.98,29.8,18.55v66.19c0,9.92-7.29,16.55-16.55,16.55H16.55c-9.92,0-16.55-6.63-16.55-16.55V23.17C0,13.25,6.63,6.63,16.55,6.63h165.52Z"/>
      <path d="m225.03,23.17c0-9.92,6.63-16.55,16.55-16.55h66.2c9.94,0,16.56,6.63,16.56,16.55v331.01c0,8.63,8.6,11.28,19.86,11.28,13.23,0,29.78-2.65,44.36-2.65,15.88,0,28.46,3.3,28.46,17.87v72.81c0,9.92-7.29,16.55-16.55,16.55h-158.89c-9.92,0-16.55-6.63-16.55-16.55V23.17Z"/>
      <path d="m526.19,6.63c9.94,0,16.56,6.63,16.56,16.55v430.32c0,9.92-6.63,16.55-16.56,16.55h-66.2c-9.92,0-16.55-6.63-16.55-16.55V23.17c0-9.92,6.63-16.55,16.55-16.55h66.2Z"/>
      <path d="m669.17,109.92v257.51c0,11.25,2.65,23.17,16.55,23.17s16.55-11.93,16.55-23.17v-86.71c0-9.95-19.86,1.97-18.53-13.9l4.64-48.35c.66-9.28,7.29-15.22,16.55-15.22h78.11c9.94,0,16.56,6.63,16.56,16.55v141.68c0,86.06-31.12,115.18-115.2,115.18s-114.52-29.12-114.52-115.18V115.22c0-86.06,31.11-115.22,114.52-115.22,97.97,0,115.2,39.07,115.2,131.76,0,8.6-5.96,15.87-15.24,16.55l-64.22,5.95c-38.39,3.33,1.33-66.87-34.42-66.87-13.9,0-16.55,11.28-16.55,22.53Z"/>
      <path d="m1008.06,6.63c9.26,0,16.55,6.63,16.55,16.55v66.22c0,14.54-13.25,17.87-29.8,17.87-15.22,0-33.76-2.65-48.32-2.65-12.59,0-21.18,1.97-21.18,11.25v66.22c0,9.24,8.6,11.25,19.86,11.25,11.91,0,27.13-2.65,39.72-2.65,15.22,0,27.13,3.3,27.13,17.87v59.6c0,14.54-12.57,17.87-27.79,17.87-12.59,0-27.81-2.65-39.06-2.65s-19.86,2.65-19.86,11.25v66.19c0,8.63,8.6,11.28,21.18,11.28,13.9,0,32.43-3.33,48.32-3.33s29.8,3.98,29.8,18.55v66.19c0,9.92-7.29,16.55-16.55,16.55h-165.52c-9.92,0-16.55-6.63-16.55-16.55V23.17c0-9.92,6.63-16.55,16.55-16.55h165.52Z"/>
      <path d="m1391.28,6.63c9.94,0,16.56,6.63,16.56,16.55v66.22c0,22.49-25.16,15.87-43.03,15.87-9.28,0-15.9,2-15.9,10.6v337.63c0,9.92-7.27,16.55-16.55,16.55h-66.2c-9.92,0-16.55-6.63-16.55-16.55V115.86c0-14.58-20.52-9.28-37.07-9.28-11.93,0-22.51-2.65-22.51-17.19V23.17c0-9.92,6.63-16.55,16.55-16.55h184.7Z"/>
      <path d="m1658.02,361.48c0,86.06-31.11,115.18-114.52,115.18s-115.2-29.12-115.2-115.18V23.17c0-9.92,6.63-16.55,16.55-16.55h66.2c9.94,0,16.56,6.63,16.56,16.55v344.26c0,11.25,2.63,23.17,16.55,23.17s16.55-11.93,16.55-23.17V23.17c0-9.92,6.63-16.55,16.55-16.55h64.22c9.94,0,16.55,6.63,16.55,16.55v338.31Z"/>
      <path d="m1860.51,470.04c-9.92,0-16.55-6.63-16.55-16.55V23.17c0-9.92,6.63-16.55,16.55-16.55h95.34c91.36,0,120.48,65.54,120.48,145.66s-35.74,148.96-127.11,148.96c-1.99,0-5.95-.68-5.95,2.65v149.6c0,9.92-6.63,16.55-16.56,16.55h-66.2Zm116.52-317.76c0-21.85-.66-59.6-30.46-59.6-1.99,0-3.3,1.33-3.3,3.33v122.45c0,3.98,3.96,3.33,6.61,3.33,25.82,0,27.15-52.32,27.15-69.52Z"/>
      <path d="m2202.07,287.99v165.5c0,9.92-6.63,16.55-16.56,16.55h-66.2c-9.92,0-16.55-6.63-16.55-16.55V23.17c0-9.92,6.63-16.55,16.55-16.55h95.34c88.71,0,120.48,54.3,120.48,135.71,0,33.77-13.23,91.36-49.64,103.97-5.96,1.97-5.96,2.62,0,4.62,56.27,15.9,45,108.56,45,152.93,0,17.19,3.98,33.77,3.98,50.32,0,10.57-7.27,15.87-17.87,15.87h-67.53c-9.92,0-16.55-6.63-16.55-16.55v-111.89c0-18.52,3.98-59.56-23.17-60.24-4.64-.65-7.27,2.65-7.27,6.63Zm0-92.69c0,3.98,2.63,6.63,7.27,6.63,25.82,0,26.49-37.75,26.49-56.27s-.66-52.97-26.49-52.97c-4.64,0-7.27,2.65-7.27,6.63v95.99Z"/>
      <path d="m2356.93,282.69v-100.61c0-89.39.65-182.08,115.18-182.08s116.52,97.99,116.52,188.68v105.94c0,87.39-1.33,182.05-114.54,182.05s-117.17-103.94-117.17-193.98Zm99.3-96.66v105.94c0,11.93-4.64,92.01,16.55,92.01s16.55-80.09,16.55-92.01v-105.94c0-11.89,4.64-92.01-16.55-92.01s-16.55,80.12-16.55,92.01Z"/>
      <path d="m2632.25,470.04c-9.92,0-16.55-6.63-16.55-16.55V23.17c0-9.92,6.63-16.55,16.55-16.55h95.34c91.36,0,120.48,65.54,120.48,145.66s-35.74,148.96-127.11,148.96c-1.99,0-5.95-.68-5.95,2.65v149.6c0,9.92-6.63,16.55-16.56,16.55h-66.2Zm116.52-317.76c0-21.85-.66-59.6-30.46-59.6-1.99,0-3.3,1.33-3.3,3.33v122.45c0,3.98,3.96,3.33,6.61,3.33,25.82,0,27.15-52.32,27.15-69.52Z"/>
      <path d="m2957.24,6.63c9.94,0,16.56,6.63,16.56,16.55v430.32c0,9.92-6.63,16.55-16.56,16.55h-66.2c-9.92,0-16.55-6.63-16.55-16.55V23.17c0-9.92,6.63-16.55,16.55-16.55h66.2Z"/>
      <path d="m3253.81,453.49c0,10.6-5.96,16.55-16.56,16.55h-70.16c-33.11,0-4.64-64.22-29.14-64.22h-31.11c-24.5,0,3.96,64.22-29.14,64.22h-65.54c-10.6,0-16.55-5.95-16.55-16.55v-1.97l46.34-430.32c.66-8.6,7.27-14.58,15.88-14.58h133.73c8.6,0,15.22,5.98,15.88,14.58l46.34,430.32v1.97Zm-123.15-133.73c5.96,0,9.94-3.3,9.94-9.24v-1.33l-14.56-199.95c0-1.97-1.33-3.3-3.31-3.3s-3.31,1.33-3.31,3.3l-14.56,199.95v1.33c0,5.95,3.96,9.24,9.92,9.24h15.88Z"/>
      <path d="m3674.76,453.49c0,10.6-5.96,16.55-16.56,16.55h-70.16c-33.11,0-4.64-64.22-29.14-64.22h-31.11c-24.5,0,3.96,64.22-29.14,64.22h-65.54c-10.6,0-16.55-5.95-16.55-16.55v-1.97l46.34-430.32c.66-8.6,7.27-14.58,15.88-14.58h133.73c8.6,0,15.22,5.98,15.88,14.58l46.34,430.32v1.97Zm-123.15-133.73c5.96,0,9.94-3.3,9.94-9.24v-1.33l-14.56-199.95c0-1.97-1.33-3.3-3.31-3.3s-3.31,1.33-3.31,3.3l-14.56,199.95v1.33c0,5.95,3.96,9.24,9.92,9.24h15.88Z"/>
      <path d="m3807.11,310.52c.66,8.6,1.33,13.22,2.65,13.22.66,0,1.97-4.62,2.63-13.22l25.82-288.67c.66-9.24,7.29-15.22,16.55-15.22h65.54c10.6,0,16.56,5.98,16.56,16.55v2l-46.34,430.32c-.66,8.6-7.29,14.54-15.88,14.54h-133.07c-9.28,0-15.88-5.95-16.55-14.54l-46.34-430.32v-2c0-10.57,6.61-16.55,16.55-16.55h70.18c9.26,0,15.88,5.98,16.55,15.22l25.16,288.67Z"/>
      <path d="m4141.38,6.63c9.26,0,16.55,6.63,16.55,16.55v66.22c0,14.54-13.25,17.87-29.8,17.87-15.22,0-33.76-2.65-48.32-2.65-12.59,0-21.18,1.97-21.18,11.25v66.22c0,9.24,8.6,11.25,19.86,11.25,11.91,0,27.13-2.65,39.72-2.65,15.22,0,27.13,3.3,27.13,17.87v59.6c0,14.54-12.57,17.87-27.79,17.87-12.59,0-27.81-2.65-39.06-2.65s-19.86,2.65-19.86,11.25v66.19c0,8.63,8.6,11.28,21.18,11.28,13.9,0,32.43-3.33,48.32-3.33s29.8,3.98,29.8,18.55v66.19c0,9.92-7.29,16.55-16.55,16.55h-165.52c-9.92,0-16.55-6.63-16.55-16.55V23.17c0-9.92,6.63-16.55,16.55-16.55h165.52Z"/>
      <path d="m4277.03,215.18v238.32c0,9.92-6.63,16.55-16.55,16.55h-59.6c-9.92,0-16.55-6.63-16.55-16.55V23.17c0-9.92,6.63-16.55,16.55-16.55h65.54c6.63,0,12.59,3.98,15.24,9.28,3.96,7.95,31.77,72.81,38.39,72.81,3.98,0,3.98-11.25,3.98-13.9V23.17c0-9.92,6.61-16.55,16.55-16.55h59.58c9.94,0,16.55,6.63,16.55,16.55v430.32c0,9.92-6.61,16.55-16.55,16.55h-59.58c-9.94,0-16.55-6.63-16.55-16.55v-131.08c0-39.04-20.52-74.82-35.76-109.24-1.33-2.65-4.62-11.25-7.93-11.25s-3.31,11.25-3.31,13.25Z"/>
      <path d="m4637.76,6.63c9.94,0,16.56,6.63,16.56,16.55v66.22c0,22.49-25.16,15.87-43.03,15.87-9.28,0-15.9,2-15.9,10.6v337.63c0,9.92-7.27,16.55-16.55,16.55h-66.2c-9.92,0-16.55-6.63-16.55-16.55V115.86c0-14.58-20.52-9.28-37.07-9.28-11.93,0-22.51-2.65-22.51-17.19V23.17c0-9.92,6.63-16.55,16.55-16.55h184.7Z"/>
      <path d="m4904.5,361.48c0,86.06-31.11,115.18-114.52,115.18s-115.2-29.12-115.2-115.18V23.17c0-9.92,6.63-16.55,16.55-16.55h66.2c9.94,0,16.56,6.63,16.56,16.55v344.26c0,11.25,2.63,23.17,16.55,23.17s16.55-11.93,16.55-23.17V23.17c0-9.92,6.63-16.55,16.55-16.55h64.22c9.94,0,16.55,6.63,16.55,16.55v338.31Z"/>
      <path d="m5037.52,287.99v165.5c0,9.92-6.63,16.55-16.56,16.55h-66.2c-9.92,0-16.55-6.63-16.55-16.55V23.17c0-9.92,6.63-16.55,16.55-16.55h95.34c88.71,0,120.48,54.3,120.48,135.71,0,33.77-13.23,91.36-49.64,103.97-5.96,1.97-5.96,2.62,0,4.62,56.27,15.9,45,108.56,45,152.93,0,17.19,3.98,33.77,3.98,50.32,0,10.57-7.27,15.87-17.87,15.87h-67.53c-9.92,0-16.55-6.63-16.55-16.55v-111.89c0-18.52,3.98-59.56-23.17-60.24-4.64-.65-7.27,2.65-7.27,6.63Zm0-92.69c0,3.98,2.63,6.63,7.27,6.63,25.82,0,26.49-37.75,26.49-56.27s-.66-52.97-26.49-52.97c-4.64,0-7.27,2.65-7.27,6.63v95.99Z"/>
      <path d="m5445.27,453.49c0,10.6-5.96,16.55-16.56,16.55h-70.16c-33.11,0-4.64-64.22-29.14-64.22h-31.11c-24.5,0,3.96,64.22-29.14,64.22h-65.54c-10.6,0-16.55-5.95-16.55-16.55v-1.97l46.34-430.32c.66-8.6,7.27-14.58,15.88-14.58h133.73c8.6,0,15.22,5.98,15.88,14.58l46.34,430.32v1.97Zm-123.15-133.73c5.96,0,9.94-3.3,9.94-9.24v-1.33l-14.56-199.95c0-1.97-1.33-3.3-3.31-3.3s-3.31,1.33-3.31,3.3l-14.56,199.95v1.33c0,5.95,3.96,9.24,9.92,9.24h15.88Z"/>
    </g>
  </g>
</svg>