<?xml version="1.0" encoding="UTF-8"?>
<svg id="Capa_2" data-name="Capa 2" xmlns="http://www.w3.org/2000/svg" viewBox="0 0 9368.88 2548.32">
  <g id="Capa_1-2" data-name="Capa 1">
    <g>
      <path d="m471.62,16.55c23.17,0,41.37,16.55,41.37,41.37v165.47c0,36.42-33.09,44.7-74.46,44.7-38.07,0-84.4-6.63-120.81-6.63-31.45,0-52.95,4.98-52.95,28.15v165.47c0,23.17,21.51,28.12,49.64,28.12,29.8,0,67.85-6.59,99.3-6.59,38.06,0,67.84,8.27,67.84,44.66v148.92c0,36.42-31.43,44.7-69.5,44.7-31.43,0-69.5-6.63-97.63-6.63s-49.64,6.63-49.64,28.12v165.5c0,21.49,21.51,28.12,52.95,28.12,34.76,0,81.09-8.27,120.81-8.27s74.46,9.92,74.46,46.34v165.47c0,24.82-18.2,41.37-41.37,41.37H57.91c-24.82,0-41.37-16.55-41.37-41.37V57.91c0-24.82,16.55-41.37,41.37-41.37h413.71Z"/>
      <path d="m579.15,57.91c0-24.82,16.55-41.37,41.37-41.37h165.49c24.82,0,41.37,16.55,41.37,41.37v827.42c0,21.49,21.51,28.12,49.64,28.12,33.09,0,74.48-6.63,110.87-6.63,39.72,0,71.17,8.27,71.17,44.7v182.02c0,24.82-18.2,41.37-41.37,41.37h-397.16c-24.82,0-41.37-16.55-41.37-41.37V57.91Z"/>
      <path d="m1975.75,16.55c24.82,0,41.37,16.55,41.37,41.37v165.47c0,56.27-62.89,39.72-107.57,39.72-23.16,0-39.7,4.98-39.7,26.5v843.93c0,24.82-18.21,41.37-41.38,41.37h-165.47c-24.82,0-41.37-16.55-41.37-41.37V289.61c0-36.42-51.31-23.17-92.67-23.17-29.78,0-56.27-6.63-56.27-43.05V57.91c0-24.82,16.55-41.37,41.37-41.37h461.7Z"/>
      <path d="m2523.45,16.55c23.17,0,41.37,16.55,41.37,41.37v165.47c0,36.42-33.09,44.7-74.46,44.7-38.07,0-84.4-6.63-120.81-6.63-31.45,0-52.95,4.98-52.95,28.15v165.47c0,23.17,21.51,28.12,49.64,28.12,29.8,0,67.85-6.59,99.3-6.59,38.06,0,67.84,8.27,67.84,44.66v148.92c0,36.42-31.43,44.7-69.5,44.7-31.43,0-69.5-6.63-97.63-6.63s-49.64,6.63-49.64,28.12v165.5c0,21.49,21.51,28.12,52.95,28.12,34.76,0,81.09-8.27,120.81-8.27s74.46,9.92,74.46,46.34v165.47c0,24.82-18.2,41.37-41.37,41.37h-413.71c-24.82,0-41.37-16.55-41.37-41.37V57.91c0-24.82,16.55-41.37,41.37-41.37h413.71Z"/>
      <path d="m2902.37,0c220.09,0,287.93,110.88,287.93,317.72,0,18.2-13.23,33.09-31.43,34.74l-167.14,14.9c-92.67,8.27-1.66-148.92-87.71-148.92-34.74,0-41.37,28.12-41.37,56.27,0,259.81,327.65,322.67,327.65,628.82,0,195.27-95.97,287.93-287.93,287.93-225.05,0-287.94-114.18-287.94-322.67,0-21.52,14.9-36.42,34.76-39.72,54.6-4.98,115.83-18.2,170.43-18.2,84.4,0-6.61,165.47,81.09,165.47,34.76,0,41.38-29.8,41.38-57.91,0-215.14-327.66-324.35-327.66-630.5,0-195.27,94.32-287.93,287.94-287.93Z"/>
      <path d="m3241.55,706.61v-251.54c0-223.42,1.65-455.08,287.93-455.08s291.25,244.91,291.25,471.62v264.75c0,218.44-3.31,455.08-286.29,455.08s-292.89-259.81-292.89-484.84Zm248.21-241.61v264.79c0,29.77-11.57,230.01,41.38,230.01s41.37-200.25,41.37-230.01v-264.79c0-29.8,11.59-230.01-41.37-230.01s-41.38,200.21-41.38,230.01Z"/>
      <path d="m4136.74,719.83v413.71c0,24.82-16.55,41.37-41.37,41.37h-165.49c-24.82,0-41.37-16.55-41.37-41.37V57.91c0-24.82,16.55-41.37,41.37-41.37h238.3c221.74,0,301.18,135.71,301.18,339.25,0,84.38-33.09,228.36-124.12,259.81-14.88,4.94-14.88,6.59,0,11.57,140.67,39.72,112.53,271.38,112.53,382.26,0,43.02,9.92,84.38,9.92,125.75,0,26.5-18.2,39.72-44.68,39.72h-168.78c-24.82,0-41.37-16.55-41.37-41.37v-279.65c0-46.34,9.92-148.92-57.91-150.6-11.59-1.65-18.21,6.63-18.21,16.55Zm0-231.66c0,9.92,6.63,16.55,18.21,16.55,64.52,0,66.19-94.34,66.19-140.65s-1.66-132.41-66.19-132.41c-11.59,0-18.21,6.63-18.21,16.55v239.97Z"/>
      <path d="m4523.92,706.61v-251.54c0-223.42,1.65-455.08,287.93-455.08s291.25,244.91,291.25,471.62v264.75c0,218.44-3.31,455.08-286.29,455.08s-292.89-259.81-292.89-484.84Zm248.21-241.61v264.79c0,29.77-11.57,230.01,41.38,230.01s41.37-200.25,41.37-230.01v-264.79c0-29.8,11.59-230.01-41.37-230.01s-41.38,200.21-41.38,230.01Z"/>
      <path d="m287.94,1356.86c220.09,0,287.93,110.88,287.93,317.72,0,18.2-13.23,33.09-31.43,34.74l-167.14,14.9c-92.67,8.27-1.66-148.92-87.71-148.92-34.74,0-41.37,28.12-41.37,56.27,0,259.81,327.65,322.67,327.65,628.82,0,195.27-95.97,287.93-287.93,287.93-225.05,0-287.94-114.18-287.94-322.67,0-21.52,14.9-36.42,34.76-39.72,54.6-4.98,115.83-18.2,170.43-18.2,84.4,0-6.61,165.47,81.09,165.47,34.76,0,41.38-29.8,41.38-57.91C327.66,2060.14,0,1950.94,0,1644.79c0-195.27,94.32-287.93,287.94-287.93Z"/>
      <path d="m1097.08,1373.41c23.17,0,41.37,16.55,41.37,41.37v165.47c0,36.42-33.09,44.7-74.46,44.7-38.07,0-84.4-6.63-120.81-6.63-31.45,0-52.95,4.98-52.95,28.15v165.47c0,23.17,21.51,28.12,49.64,28.12,29.8,0,67.85-6.59,99.3-6.59,38.06,0,67.84,8.27,67.84,44.66v148.92c0,36.42-31.43,44.7-69.5,44.7-31.43,0-69.5-6.63-97.63-6.63s-49.64,6.63-49.64,28.12v165.5c0,21.49,21.51,28.12,52.95,28.12,34.76,0,81.09-8.27,120.81-8.27s74.46,9.92,74.46,46.34v165.47c0,24.82-18.2,41.37-41.37,41.37h-413.71c-24.82,0-41.37-16.55-41.37-41.37v-1075.63c0-24.82,16.55-41.37,41.37-41.37h413.71Z"/>
      <path d="m1436.28,1631.57v643.72c0,28.12,6.63,57.91,41.37,57.91,102.6,0-19.86-278,82.75-278h167.14c24.82,0,41.37,16.55,41.37,41.37v163.82c0,218.44-82.75,287.93-292.9,287.93s-286.29-72.81-286.29-287.93v-615.6c0-216.76,79.44-287.93,289.61-287.93,273.04,0,289.59,122.45,289.59,367.36,0,23.17-16.55,39.72-39.72,41.37l-165.49,9.92c-99.28,6.63,9.94-200.21-86.05-200.21-34.74,0-41.37,28.12-41.37,56.27Z"/>
      <path d="m2083.27,2076.69v413.71c0,24.82-16.55,41.37-41.37,41.37h-165.49c-24.82,0-41.37-16.55-41.37-41.37v-1075.63c0-24.82,16.55-41.37,41.37-41.37h238.3c221.74,0,301.18,135.71,301.18,339.25,0,84.38-33.09,228.36-124.12,259.81-14.88,4.94-14.88,6.59,0,11.57,140.67,39.72,112.53,271.38,112.53,382.26,0,43.02,9.92,84.38,9.92,125.75,0,26.5-18.2,39.72-44.68,39.72h-168.78c-24.82,0-41.37-16.55-41.37-41.37v-279.65c0-46.34,9.92-148.92-57.91-150.6-11.59-1.65-18.21,6.63-18.21,16.55Zm0-231.66c0,9.92,6.63,16.55,18.21,16.55,64.52,0,66.19-94.34,66.19-140.65s-1.66-132.41-66.19-132.41c-11.59,0-18.21,6.63-18.21,16.55v239.97Z"/>
      <path d="m2940.4,1373.41c23.17,0,41.37,16.55,41.37,41.37v165.47c0,36.42-33.09,44.7-74.46,44.7-38.07,0-84.4-6.63-120.81-6.63-31.45,0-52.95,4.98-52.95,28.15v165.47c0,23.17,21.51,28.12,49.64,28.12,29.8,0,67.85-6.59,99.3-6.59,38.06,0,67.84,8.27,67.84,44.66v148.92c0,36.42-31.43,44.7-69.5,44.7-31.43,0-69.5-6.63-97.63-6.63s-49.64,6.63-49.64,28.12v165.5c0,21.49,21.51,28.12,52.95,28.12,34.76,0,81.09-8.27,120.81-8.27s74.46,9.92,74.46,46.34v165.47c0,24.82-18.2,41.37-41.37,41.37h-413.71c-24.82,0-41.37-16.55-41.37-41.37v-1075.63c0-24.82,16.55-41.37,41.37-41.37h413.71Z"/>
      <path d="m3517.9,1373.41c24.82,0,41.37,16.55,41.37,41.37v165.47c0,56.27-62.89,39.72-107.57,39.72-23.16,0-39.7,4.98-39.7,26.5v843.93c0,24.82-18.21,41.37-41.38,41.37h-165.47c-24.82,0-41.37-16.55-41.37-41.37v-843.93c0-36.42-51.31-23.17-92.67-23.17-29.78,0-56.27-6.63-56.27-43.05v-165.47c0-24.82,16.55-41.37,41.37-41.37h461.7Z"/>
      <path d="m3595.63,2063.47v-251.54c0-223.42,1.66-455.08,287.94-455.08s291.25,244.91,291.25,471.62v264.75c0,218.44-3.31,455.08-286.29,455.08s-292.9-259.81-292.9-484.84Zm248.22-241.61v264.79c0,29.77-11.57,230.01,41.38,230.01s41.37-200.25,41.37-230.01v-264.79c0-29.8,11.59-230.01-41.37-230.01s-41.38,200.21-41.38,230.01Z"/>
      <path d="m4909.48,1373.41c276.36,0,306.15,370.69,306.15,572.56s-24.82,579.18-306.15,585.81h-244.91c-24.82,0-41.37-16.55-41.37-41.37v-1075.63c0-24.82,16.55-41.37,41.37-41.37h244.91Zm-18.2,926.7c87.71,0,76.13-302.82,76.13-350.82s11.59-344.22-74.48-344.22h-11.57c-4.98,0-9.94,4.98-9.94,9.95v673.49c0,6.63,4.96,11.6,9.94,11.6h9.92Z"/>
      <path d="m5736.85,1373.41c23.17,0,41.37,16.55,41.37,41.37v165.47c0,36.42-33.09,44.7-74.46,44.7-38.07,0-84.4-6.63-120.81-6.63-31.45,0-52.95,4.98-52.95,28.15v165.47c0,23.17,21.51,28.12,49.64,28.12,29.8,0,67.85-6.59,99.3-6.59,38.06,0,67.84,8.27,67.84,44.66v148.92c0,36.42-31.43,44.7-69.5,44.7-31.43,0-69.5-6.63-97.63-6.63s-49.64,6.63-49.64,28.12v165.5c0,21.49,21.51,28.12,52.95,28.12,34.76,0,81.09-8.27,120.81-8.27s74.46,9.92,74.46,46.34v165.47c0,24.82-18.2,41.37-41.37,41.37h-413.71c-24.82,0-41.37-16.55-41.37-41.37v-1075.63c0-24.82,16.55-41.37,41.37-41.37h413.71Z"/>
      <path d="m5844.37,1414.78c0-24.82,16.55-41.37,41.37-41.37h165.49c24.82,0,41.37,16.55,41.37,41.37v827.42c0,21.49,21.51,28.12,49.64,28.12,33.09,0,74.48-6.63,110.88-6.63,39.7,0,71.15,8.27,71.15,44.7v182.02c0,24.82-18.21,41.37-41.37,41.37h-397.16c-24.82,0-41.37-16.55-41.37-41.37v-1075.63Z"/>
      <path d="m7240.97,1373.41c24.82,0,41.37,16.55,41.37,41.37v165.47c0,56.27-62.89,39.72-107.57,39.72-23.16,0-39.7,4.98-39.7,26.5v843.93c0,24.82-18.21,41.37-41.38,41.37h-165.47c-24.82,0-41.37-16.55-41.37-41.37v-843.93c0-36.42-51.31-23.17-92.67-23.17-29.78,0-56.27-6.63-56.27-43.05v-165.47c0-24.82,16.55-41.37,41.37-41.37h461.7Z"/>
      <path d="m7532.17,1373.41c24.82,0,41.37,16.55,41.37,41.37v1075.63c0,24.82-16.55,41.37-41.37,41.37h-165.49c-24.82,0-41.37-16.55-41.37-41.37v-1075.63c0-24.82,16.55-41.37,41.37-41.37h165.49Zm-24.82-292.9c16.55,0,36.41,4.98,36.41,24.82,0,28.15-67.85,140.65-82.75,167.15-4.96,9.92-16.55,18.2-28.12,18.2h-52.95c-18.21,0-33.11-9.92-33.11-29.8,0-28.12,33.11-124.1,43.03-157.2,3.31-13.25,16.55-23.17,31.45-23.17h86.05Z"/>
      <path d="m8081.54,1945.96c0,3.33,1.65,4.98,3.3,4.98,107.57,14.9,143.98,132.38,143.98,226.71,0,213.46-66.19,354.11-301.18,354.11h-238.3c-24.82,0-41.37-16.55-41.37-41.37v-1075.63c0-24.82,16.55-41.37,41.37-41.37h238.3c221.74,0,292.9,125.75,292.9,330.97,0,92.66-28.13,220.09-135.71,238.28-1.65,0-3.3,1.65-3.3,3.3Zm-168.8-117.48c66.19,0,67.85-74.46,67.85-124.1,0-57.91,0-115.86-76.13-115.86l-8.27,8.27v223.42l8.27,8.27h8.27Zm-8.27,198.57l-8.27,6.63v292.9l6.63,6.63h8.27c72.81,0,77.77-69.52,77.77-125.78,0-59.56,9.92-182.02-77.77-180.37h-6.63Z"/>
      <path d="m8750.02,1373.41c23.17,0,41.37,16.55,41.37,41.37v165.47c0,36.42-33.09,44.7-74.46,44.7-38.07,0-84.4-6.63-120.81-6.63-31.45,0-52.95,4.98-52.95,28.15v165.47c0,23.17,21.51,28.12,49.64,28.12,29.8,0,67.85-6.59,99.3-6.59,38.06,0,67.84,8.27,67.84,44.66v148.92c0,36.42-31.43,44.7-69.5,44.7-31.43,0-69.5-6.63-97.63-6.63s-49.64,6.63-49.64,28.12v165.5c0,21.49,21.51,28.12,52.95,28.12,34.76,0,81.09-8.27,120.81-8.27s74.46,9.92,74.46,46.34v165.47c0,24.82-18.2,41.37-41.37,41.37h-413.71c-24.82,0-41.37-16.55-41.37-41.37v-1075.63c0-24.82,16.55-41.37,41.37-41.37h413.71Z"/>
      <path d="m9327.52,1373.41c24.82,0,41.37,16.55,41.37,41.37v165.47c0,56.27-62.89,39.72-107.57,39.72-23.16,0-39.7,4.98-39.7,26.5v843.93c0,24.82-18.21,41.37-41.38,41.37h-165.47c-24.82,0-41.37-16.55-41.37-41.37v-843.93c0-36.42-51.31-23.17-92.67-23.17-29.78,0-56.27-6.63-56.27-43.05v-165.47c0-24.82,16.55-41.37,41.37-41.37h461.7Z"/>
    </g>
  </g>
</svg>